<?xml version="1.0" encoding="UTF-8" standalone="no"?>
<!DOCTYPE svg PUBLIC "-//W3C//DTD SVG 1.1//EN" "http://www.w3.org/Graphics/SVG/1.1/DTD/svg11.dtd">
<svg width="720.00" height="405.00" viewBox="0.00 0.00 1920.00 1080.00" xmlns="http://www.w3.org/2000/svg" xmlns:xlink="http://www.w3.org/1999/xlink">
<g stroke-linecap="round" transform="translate(-4.00, -46.00)" id="Green"/>
<g stroke-linecap="round" transform="translate(-4.00, -46.00)" id="Blue">
<path d="M885.41,60.34 Q846.21,203.26 838.56,291.68" fill="none" stroke="rgb(0, 0, 255)" stroke-width="2.00" stroke-opacity="1.00" stroke-linejoin="round"/>
<path d="M838.57,291.68 Q828.28,452.17 883.42,558.76" fill="none" stroke="rgb(0, 0, 255)" stroke-width="2.00" stroke-opacity="1.00" stroke-linejoin="round"/>
<path d="M964.21,47.69 Q919.05,203.50 908.89,268.98" fill="none" stroke="rgb(0, 0, 255)" stroke-width="2.00" stroke-opacity="1.00" stroke-linejoin="round"/>
<path d="M906.96,295.80 Q906.13,366.51 907.80,376.97" fill="none" stroke="rgb(0, 0, 255)" stroke-width="2.00" stroke-opacity="1.00" stroke-linejoin="round"/>
<path d="M1427.86,131.60 Q1440.62,65.75 1471.48,25.84" fill="none" stroke="rgb(0, 0, 255)" stroke-width="2.00" stroke-opacity="1.00" stroke-linejoin="round"/>
<path d="M1555.02,42.71 Q1560.37,113.90 1560.78,114.31" fill="none" stroke="rgb(0, 0, 255)" stroke-width="2.00" stroke-opacity="1.00" stroke-linejoin="round"/>
<path d="M1581.36,41.47 Q1599.47,147.23 1603.17,159.58" fill="none" stroke="rgb(0, 0, 255)" stroke-width="2.00" stroke-opacity="1.00" stroke-linejoin="round"/>
<path d="M1603.17,159.58 Q1661.19,47.23 1693.70,27.89" fill="none" stroke="rgb(0, 0, 255)" stroke-width="2.00" stroke-opacity="1.00" stroke-linejoin="round"/>
<path d="M1624.76,271.35 Q1681.66,179.40 1806.77,84.44" fill="none" stroke="rgb(0, 0, 255)" stroke-width="2.00" stroke-opacity="1.00" stroke-linejoin="round"/>
<path d="M1805.33,84.92 Q1827.95,66.86 1831.81,67.39" fill="none" stroke="rgb(0, 0, 255)" stroke-width="2.00" stroke-opacity="1.00" stroke-linejoin="round"/>
<path d="M1803.06,172.23 Q1828.68,116.99 1828.68,115.14" fill="none" stroke="rgb(0, 0, 255)" stroke-width="2.00" stroke-opacity="1.00" stroke-linejoin="round"/>
<path d="M1803.99,170.07 Q1899.67,80.26 1903.06,79.33" fill="none" stroke="rgb(0, 0, 255)" stroke-width="2.00" stroke-opacity="1.00" stroke-linejoin="round"/>
<path d="M1904.30,78.41 Q1926.83,92.30 1932.38,101.86" fill="none" stroke="rgb(0, 0, 255)" stroke-width="2.00" stroke-opacity="1.00" stroke-linejoin="round"/>
<path d="M1550.79,220.83 Q1596.64,296.05 1606.87,305.94" fill="none" stroke="rgb(0, 0, 255)" stroke-width="2.00" stroke-opacity="1.00" stroke-linejoin="round"/>
<path d="M1208.23,310.02 Q1215.45,333.28 1215.91,333.74" fill="none" stroke="rgb(0, 0, 255)" stroke-width="2.00" stroke-opacity="1.00" stroke-linejoin="round"/>
<path d="M1215.91,333.04 Q1245.45,284.20 1273.60,254.89" fill="none" stroke="rgb(0, 0, 255)" stroke-width="2.00" stroke-opacity="1.00" stroke-linejoin="round"/>
<path d="M1281.50,247.25 Q1337.75,204.50 1401.00,203.75" fill="none" stroke="rgb(0, 0, 255)" stroke-width="2.00" stroke-opacity="1.00" stroke-linejoin="round"/>
<path d="M1401.23,203.42 Q1472.33,204.63 1511.50,226.88" fill="none" stroke="rgb(0, 0, 255)" stroke-width="2.00" stroke-opacity="1.00" stroke-linejoin="round"/>
<path d="M1509.08,226.16 Q1545.84,244.78 1554.79,253.96" fill="none" stroke="rgb(0, 0, 255)" stroke-width="2.00" stroke-opacity="1.00" stroke-linejoin="round"/>
<path d="M1544.63,217.93 Q1554.30,245.02 1553.09,252.03" fill="none" stroke="rgb(0, 0, 255)" stroke-width="2.00" stroke-opacity="1.00" stroke-linejoin="round"/>
<path d="M1213.81,425.32 Q1246.57,435.09 1250.79,437.97" fill="none" stroke="rgb(0, 0, 255)" stroke-width="2.00" stroke-opacity="1.00" stroke-linejoin="round"/>
<path d="M1212.28,425.52 Q1265.54,470.54 1288.72,468.05" fill="none" stroke="rgb(0, 0, 255)" stroke-width="2.00" stroke-opacity="1.00" stroke-linejoin="round"/>
<path d="M1286.99,467.85 Q1342.17,468.81 1352.71,466.51" fill="none" stroke="rgb(0, 0, 255)" stroke-width="2.00" stroke-opacity="1.00" stroke-linejoin="round"/>
<path d="M1324.74,460.38 Q1351.56,465.94 1352.90,466.32" fill="none" stroke="rgb(0, 0, 255)" stroke-width="2.00" stroke-opacity="1.00" stroke-linejoin="round"/>
<path d="M1365.34,395.91 Q1389.51,349.46 1429.68,345.07" fill="none" stroke="rgb(0, 0, 255)" stroke-width="2.00" stroke-opacity="1.00" stroke-linejoin="round"/>
<path d="M1428.73,344.75 Q1473.61,340.36 1494.64,377.08" fill="none" stroke="rgb(0, 0, 255)" stroke-width="2.00" stroke-opacity="1.00" stroke-linejoin="round"/>
<path d="M1151.29,397.99 Q1159.85,347.57 1173.65,311.42" fill="none" stroke="rgb(0, 0, 255)" stroke-width="2.00" stroke-opacity="1.00" stroke-linejoin="round"/>
<path d="M1149.86,433.66 Q1152.24,534.50 1154.14,536.41" fill="none" stroke="rgb(0, 0, 255)" stroke-width="2.00" stroke-opacity="1.00" stroke-linejoin="round"/>
<path d="M1142.05,548.28 Q1151.55,642.16 1159.87,660.38" fill="none" stroke="rgb(0, 0, 255)" stroke-width="2.00" stroke-opacity="1.00" stroke-linejoin="round"/>
<path d="M1065.68,556.70 Q1062.86,615.91 1080.99,657.39" fill="none" stroke="rgb(0, 0, 255)" stroke-width="2.00" stroke-opacity="1.00" stroke-linejoin="round"/>
<path d="M1655.78,482.72 C1655.78,482.72 1655.92,482.65 1655.92,482.65 C1656.68,479.08 1662.40,466.20 1664.31,460.40 C1665.60,456.53 1667.76,452.40 1669.62,451.37 C1671.65,450.31 1674.63,450.63 1676.15,451.47 C1677.98,452.53 1681.64,455.92 1683.68,458.74 C1687.13,463.58 1691.61,473.22 1696.25,484.00 C1699.45,491.59 1704.78,504.35 1704.87,504.59 C1704.96,504.83 1705.06,505.13 1705.17,505.49" fill="none" stroke="rgb(0, 0, 255)" stroke-width="2.00" stroke-opacity="1.00" stroke-linejoin="round"/>
<path d="M1655.31,483.12 C1655.31,483.19 1655.31,483.25 1655.31,483.30 C1655.31,485.66 1655.06,489.53 1655.31,490.42 C1656.23,493.46 1662.85,501.44 1672.31,511.41 C1679.22,518.64 1688.00,526.75 1690.08,526.57 C1692.27,526.30 1697.22,523.20 1699.10,521.07 C1700.92,518.97 1704.52,512.47 1705.26,509.48 C1705.57,508.19 1705.20,506.64 1704.60,505.42 C1704.35,504.97 1704.20,504.68 1704.14,504.55 C1704.12,504.49 1704.12,504.46 1704.15,504.45" fill="none" stroke="rgb(0, 0, 255)" stroke-width="2.00" stroke-opacity="1.00" stroke-linejoin="round"/>
<path d="M1220.13,551.71 C1220.13,551.63 1220.43,551.01 1220.78,550.37 C1221.59,548.91 1224.45,547.56 1226.01,547.94 C1229.62,548.90 1232.26,551.95 1232.39,552.45 C1232.42,552.56 1232.45,552.80 1232.50,553.18 C1232.50,553.18 1232.44,553.29 1232.44,553.29" fill="none" stroke="rgb(0, 0, 255)" stroke-width="2.00" stroke-opacity="1.00" stroke-linejoin="round"/>
<path d="M1219.06,557.67 C1219.09,559.19 1220.18,562.63 1221.05,563.95 C1221.80,565.04 1224.05,566.82 1225.23,567.30 C1226.47,567.77 1228.87,567.60 1230.35,567.01 C1231.92,566.35 1233.80,564.23 1234.19,562.32 C1234.55,560.38 1234.18,556.49 1233.69,555.15 C1233.39,554.39 1233.09,554.13 1233.00,554.08" fill="none" stroke="rgb(0, 0, 255)" stroke-width="2.00" stroke-opacity="1.00" stroke-linejoin="round"/>
<path d="M1720.21,880.69 Q1844.95,857.05 1932.06,877.62" fill="none" stroke="rgb(0, 0, 255)" stroke-width="2.00" stroke-opacity="1.00" stroke-linejoin="round"/>
<path d="M1565.36,930.71 Q1610.19,903.12 1720.92,880.51" fill="none" stroke="rgb(0, 0, 255)" stroke-width="2.00" stroke-opacity="1.00" stroke-linejoin="round"/>
<path d="M1527.20,872.63 Q1551.06,845.03 1624.97,830.99" fill="none" stroke="rgb(0, 0, 255)" stroke-width="2.00" stroke-opacity="1.00" stroke-linejoin="round"/>
<path d="M1624.95,830.78 Q1725.55,797.61 1844.02,796.51" fill="none" stroke="rgb(0, 0, 255)" stroke-width="2.00" stroke-opacity="1.00" stroke-linejoin="round"/>
<path d="M1843.06,795.70 Q1915.13,791.23 1932.45,782.58" fill="none" stroke="rgb(0, 0, 255)" stroke-width="2.00" stroke-opacity="1.00" stroke-linejoin="round"/>
<path d="M1041.54,183.89 Q1020.67,344.14 1051.23,476.07" fill="none" stroke="rgb(0, 0, 255)" stroke-width="2.00" stroke-opacity="1.00" stroke-linejoin="round"/>
<path d="M1042.64,183.77 Q1046.20,254.44 1079.25,346.97" fill="none" stroke="rgb(0, 0, 255)" stroke-width="2.00" stroke-opacity="1.00" stroke-linejoin="round"/>
<path d="M1078.74,345.95 Q1084.33,243.76 1108.22,165.98" fill="none" stroke="rgb(0, 0, 255)" stroke-width="2.00" stroke-opacity="1.00" stroke-linejoin="round"/>
<path d="M1116.67,315.33 Q1123.33,135.33 1168.00,34.00" fill="none" stroke="rgb(0, 0, 255)" stroke-width="2.00" stroke-opacity="1.00" stroke-linejoin="round"/>
<path d="M1272.42,34.14 C1272.42,34.14 1272.61,34.27 1272.61,34.27 C1271.96,41.27 1270.68,56.20 1270.51,63.61 C1270.47,70.67 1270.82,85.96 1271.39,92.39 C1273.16,110.54 1277.82,127.21 1279.05,130.12 C1279.24,130.15 1287.91,93.69 1292.64,76.07 C1297.40,59.10 1306.84,25.59 1307.26,23.64 C1307.33,23.32 1307.35,23.14 1307.32,23.10" fill="none" stroke="rgb(0, 0, 255)" stroke-width="2.00" stroke-opacity="1.00" stroke-linejoin="round"/>
</g>
<g stroke-linecap="round" transform="translate(-4.00, -46.00)" id="Red">
<path d="M1528.67,387.69 Q1563.25,346.82 1561.56,278.39" fill="none" stroke="rgb(255, 0, 0)" stroke-width="2.00" stroke-opacity="1.00" stroke-linejoin="round"/>
<path d="M1556.94,271.42 C1556.94,271.42 1566.32,312.29 1566.32,312.29 C1566.03,309.19 1563.69,291.49 1563.43,285.05 C1563.27,280.26 1563.19,270.63 1563.08,269.09 C1563.08,270.23 1564.07,290.00 1564.55,298.81 C1565.21,307.73 1568.73,331.85 1568.43,333.86 C1567.45,333.24 1566.69,331.74 1566.18,329.03 C1565.24,323.88 1564.64,308.46 1564.39,302.07 C1563.86,292.74 1563.12,286.58 1562.14,282.87 C1561.93,281.99 1561.50,281.42 1560.40,280.38 C1559.47,282.60 1558.23,297.75 1558.13,303.42 C1558.04,318.44 1560.14,336.03 1560.22,339.26 C1560.22,339.26 1559.08,293.44 1559.08,293.44 C1559.03,298.81 1558.96,311.62 1558.93,319.05 C1559.12,333.03 1561.47,344.72 1562.07,345.75 C1561.74,343.57 1559.76,329.80 1559.17,321.23 C1558.79,313.70 1558.30,303.57 1558.13,302.35 C1557.11,306.27 1554.60,340.50 1555.35,347.07 C1556.28,343.79 1557.92,330.01 1558.09,324.14 C1558.10,323.69 1558.11,322.93 1558.11,321.88" fill="none" stroke="rgb(255, 255, 255)" stroke-width="6.00" stroke-opacity="1.00" stroke-linejoin="round"/>
<path d="M1554.50,254.92 Q1561.83,308.17 1551.51,347.57" fill="none" stroke="rgb(255, 0, 0)" stroke-width="2.00" stroke-opacity="1.00" stroke-linejoin="round"/>
<path d="M1217.11,333.29 Q1238.43,390.63 1278.35,420.35" fill="none" stroke="rgb(255, 0, 0)" stroke-width="2.00" stroke-opacity="1.00" stroke-linejoin="round"/>
<path d="M1213.34,510.14 C1213.45,510.51 1213.57,512.68 1212.83,523.23 C1212.34,531.47 1212.29,540.84 1213.43,546.52 C1213.92,548.89 1214.85,552.38 1215.11,553.15 C1215.16,553.30 1215.27,553.59 1215.42,554.01" fill="none" stroke="rgb(255, 0, 0)" stroke-width="2.00" stroke-opacity="1.00" stroke-linejoin="round"/>
<path d="M1213.00,537.96 C1213.12,537.79 1213.40,537.41 1213.68,537.25 C1214.49,536.79 1215.45,536.51 1215.91,536.73 C1217.08,537.33 1219.89,540.78 1220.50,542.80 C1221.15,545.05 1220.70,549.50 1219.92,550.49 C1219.68,550.78 1219.29,550.89 1218.85,550.93" fill="none" stroke="rgb(255, 0, 0)" stroke-width="2.00" stroke-opacity="1.00" stroke-linejoin="round"/>
<path d="M1218.39,552.13 C1218.61,552.98 1220.36,555.73 1221.70,556.79 C1223.12,557.89 1226.76,558.92 1227.96,558.68 C1229.35,558.36 1231.44,556.49 1232.14,555.28 C1233.00,553.75 1233.99,548.95 1234.02,545.28 C1234.02,542.79 1233.45,537.08 1232.99,534.38 C1232.92,533.99 1232.83,533.57 1232.81,533.51" fill="none" stroke="rgb(255, 0, 0)" stroke-width="2.00" stroke-opacity="1.00" stroke-linejoin="round"/>
<path d="M1214.97,551.73 C1214.92,551.71 1214.93,551.78 1215.01,551.95 C1216.02,553.86 1218.74,556.57 1221.01,557.84 C1222.95,558.92 1224.38,559.36 1224.83,559.42" fill="none" stroke="rgb(255, 0, 0)" stroke-width="2.00" stroke-opacity="1.00" stroke-linejoin="round"/>
<path d="M1216.83,552.72 C1216.97,552.79 1217.07,552.84 1217.12,552.87 C1217.22,552.92 1217.32,552.97 1217.42,553.03 C1217.53,553.08 1217.64,553.14 1217.75,553.20" fill="none" stroke="rgb(255, 0, 0)" stroke-width="2.00" stroke-opacity="1.00" stroke-linejoin="round"/>
<path d="M1026.47,31.43 Q1051.85,132.50 1055.61,138.61" fill="none" stroke="rgb(255, 0, 0)" stroke-width="2.00" stroke-opacity="1.00" stroke-linejoin="round"/>
<path d="M1055.14,139.08 Q1077.71,35.19 1072.54,34.25" fill="none" stroke="rgb(255, 0, 0)" stroke-width="2.00" stroke-opacity="1.00" stroke-linejoin="round"/>
<path d="M1087.17,42.63 Q1092.51,77.72 1093.63,82.49" fill="none" stroke="rgb(255, 0, 0)" stroke-width="2.00" stroke-opacity="1.00" stroke-linejoin="round"/>
<path d="M1092.96,80.05 C1093.17,79.73 1093.38,78.84 1093.63,77.15 C1094.44,71.14 1099.03,43.72 1099.44,40.64 C1099.59,39.37 1099.80,37.61 1100.00,36.37 C1100.00,36.53 1100.00,36.69 1100.00,36.85 C1100.00,36.91 1100.00,36.96 1100.00,37.02" fill="none" stroke="rgb(255, 0, 0)" stroke-width="2.00" stroke-opacity="1.00" stroke-linejoin="round"/>
<path d="M1100.48,37.44 C1100.48,37.44 1100.92,37.55 1100.92,37.55 C1100.92,37.55 1106.22,67.82 1106.22,67.82 C1106.40,62.49 1107.03,42.81 1107.04,42.19 C1107.07,40.39 1107.00,39.24 1106.90,39.04 C1106.90,39.04 1106.71,39.02 1106.71,39.02" fill="none" stroke="rgb(255, 0, 0)" stroke-width="2.00" stroke-opacity="1.00" stroke-linejoin="round"/>
<path d="M1120.35,38.60 C1120.35,40.81 1120.31,47.63 1122.61,74.55 C1122.68,75.40 1122.75,76.25 1122.82,77.09 C1122.85,70.92 1122.94,60.64 1123.54,51.67 C1124.21,43.61 1125.03,40.52 1125.17,40.45" fill="none" stroke="rgb(255, 0, 0)" stroke-width="2.00" stroke-opacity="1.00" stroke-linejoin="round"/>
</g>
<g stroke-linecap="round" transform="translate(-4.00, -46.00)" id="Black">
<path d="M777.74,33.32 Q760.30,97.53 768.23,192.66" fill="none" stroke="rgb(0, 0, 0)" stroke-width="2.00" stroke-opacity="1.00" stroke-linejoin="round"/>
<path d="M800.44,42.35 Q769.46,166.29 761.56,240.40" fill="none" stroke="rgb(0, 0, 0)" stroke-width="2.00" stroke-opacity="1.00" stroke-linejoin="round"/>
<path d="M736.53,322.31 Q760.09,258.48 760.95,238.34" fill="none" stroke="rgb(0, 0, 0)" stroke-width="2.00" stroke-opacity="1.00" stroke-linejoin="round"/>
<path d="M741.24,312.88 Q799.08,215.21 820.49,144.96" fill="none" stroke="rgb(0, 0, 0)" stroke-width="2.00" stroke-opacity="1.00" stroke-linejoin="round"/>
<path d="M823.92,33.15 Q815.78,138.96 824.35,188.22" fill="none" stroke="rgb(0, 0, 0)" stroke-width="2.00" stroke-opacity="1.00" stroke-linejoin="round"/>
<path d="M866.82,32.36 Q816.24,181.28 817.37,279.61" fill="none" stroke="rgb(0, 0, 0)" stroke-width="2.00" stroke-opacity="1.00" stroke-linejoin="round"/>
<path d="M888.99,32.93 Q868.53,193.78 890.70,310.30" fill="none" stroke="rgb(0, 0, 0)" stroke-width="2.00" stroke-opacity="1.00" stroke-linejoin="round"/>
<path d="M882.76,322.55 Q946.51,213.14 968.91,11.54" fill="none" stroke="rgb(0, 0, 0)" stroke-width="2.00" stroke-opacity="1.00" stroke-linejoin="round"/>
<path d="M876.38,328.49 Q958.39,241.62 985.73,154.74" fill="none" stroke="rgb(0, 0, 0)" stroke-width="2.00" stroke-opacity="1.00" stroke-linejoin="round"/>
<path d="M892.76,315.05 Q918.54,436.95 952.37,516.96" fill="none" stroke="rgb(0, 0, 0)" stroke-width="2.00" stroke-opacity="1.00" stroke-linejoin="round"/>
<path d="M892.08,312.69 Q892.73,315.29 893.06,315.29" fill="none" stroke="rgb(0, 0, 0)" stroke-width="2.00" stroke-opacity="1.00" stroke-linejoin="round"/>
<path d="M817.17,279.33 Q817.99,410.20 846.80,487.15" fill="none" stroke="rgb(0, 0, 0)" stroke-width="2.00" stroke-opacity="1.00" stroke-linejoin="round"/>
<path d="M847.13,487.44 Q865.12,542.67 897.75,580.33" fill="none" stroke="rgb(0, 0, 0)" stroke-width="2.00" stroke-opacity="1.00" stroke-linejoin="round"/>
<path d="M853.85,314.27 Q848.77,470.92 896.34,577.47" fill="none" stroke="rgb(0, 0, 0)" stroke-width="2.00" stroke-opacity="1.00" stroke-linejoin="round"/>
<path d="M878.36,167.93 Q857.54,241.02 853.75,315.24" fill="none" stroke="rgb(0, 0, 0)" stroke-width="2.00" stroke-opacity="1.00" stroke-linejoin="round"/>
<path d="M992.31,36.94 Q967.60,222.25 1036.78,437.21" fill="none" stroke="rgb(0, 0, 0)" stroke-width="2.00" stroke-opacity="1.00" stroke-linejoin="round"/>
<path d="M1036.52,437.91 Q1056.87,495.56 1065.16,508.00" fill="none" stroke="rgb(0, 0, 0)" stroke-width="2.00" stroke-opacity="1.00" stroke-linejoin="round"/>
<path d="M1081.26,398.92 Q1103.60,516.82 1198.38,620.08" fill="none" stroke="rgb(0, 0, 0)" stroke-width="2.00" stroke-opacity="1.00" stroke-linejoin="round"/>
<path d="M1098.21,306.45 Q1109.00,482.14 1200.70,625.47" fill="none" stroke="rgb(0, 0, 0)" stroke-width="2.00" stroke-opacity="1.00" stroke-linejoin="round"/>
<path d="M1108.59,485.05 Q1116.72,586.10 1176.54,694.12" fill="none" stroke="rgb(0, 0, 0)" stroke-width="2.00" stroke-opacity="1.00" stroke-linejoin="round"/>
<path d="M1064.10,507.77 Q1114.00,619.38 1163.02,670.59" fill="none" stroke="rgb(0, 0, 0)" stroke-width="2.00" stroke-opacity="1.00" stroke-linejoin="round"/>
<path d="M1051.43,483.40 Q1021.49,569.95 1043.95,628.89" fill="none" stroke="rgb(0, 0, 0)" stroke-width="2.00" stroke-opacity="1.00" stroke-linejoin="round"/>
<path d="M943.50,395.77 Q960.28,583.37 957.73,669.28" fill="none" stroke="rgb(0, 0, 0)" stroke-width="2.00" stroke-opacity="1.00" stroke-linejoin="round"/>
<path d="M957.73,668.77 Q995.36,554.90 986.20,486.26" fill="none" stroke="rgb(0, 0, 0)" stroke-width="2.00" stroke-opacity="1.00" stroke-linejoin="round"/>
<path d="M988.24,501.01 Q1023.32,598.62 1024.84,717.58" fill="none" stroke="rgb(0, 0, 0)" stroke-width="2.00" stroke-opacity="1.00" stroke-linejoin="round"/>
<path d="M1009.74,808.92 Q1022.02,784.36 1025.19,717.81" fill="none" stroke="rgb(0, 0, 0)" stroke-width="2.00" stroke-opacity="1.00" stroke-linejoin="round"/>
<path d="M1008.95,811.69 Q1045.00,757.03 1058.46,665.53" fill="none" stroke="rgb(0, 0, 0)" stroke-width="2.00" stroke-opacity="1.00" stroke-linejoin="round"/>
<path d="M1043.81,630.67 Q1073.52,698.40 1104.81,750.30" fill="none" stroke="rgb(0, 0, 0)" stroke-width="2.00" stroke-opacity="1.00" stroke-linejoin="round"/>
<path d="M1044.41,631.13 Q1043.19,625.99 1043.92,627.46" fill="none" stroke="rgb(0, 0, 0)" stroke-width="2.00" stroke-opacity="1.00" stroke-linejoin="round"/>
<path d="M1065.44,557.77 Q1064.46,536.99 1070.82,523.54" fill="none" stroke="rgb(0, 0, 0)" stroke-width="2.00" stroke-opacity="1.00" stroke-linejoin="round"/>
<path d="M1078.07,652.17 Q1102.45,697.54 1139.49,734.89" fill="none" stroke="rgb(0, 0, 0)" stroke-width="2.00" stroke-opacity="1.00" stroke-linejoin="round"/>
<path d="M1104.92,750.63 Q1137.02,807.72 1170.35,829.33" fill="none" stroke="rgb(0, 0, 0)" stroke-width="2.00" stroke-opacity="1.00" stroke-linejoin="round"/>
<path d="M1106.00,752.50 Q1137.50,867.00 1155.00,938.50" fill="none" stroke="rgb(0, 0, 0)" stroke-width="2.00" stroke-opacity="1.00" stroke-linejoin="round"/>
<path d="M1149.95,1012.20 Q1159.21,951.42 1154.39,936.59" fill="none" stroke="rgb(0, 0, 0)" stroke-width="2.00" stroke-opacity="1.00" stroke-linejoin="round"/>
<path d="M1151.80,1011.09 Q1188.86,929.18 1186.64,868.03" fill="none" stroke="rgb(0, 0, 0)" stroke-width="2.00" stroke-opacity="1.00" stroke-linejoin="round"/>
<path d="M1116.78,610.78 Q1130.55,709.79 1159.83,799.33" fill="none" stroke="rgb(0, 0, 0)" stroke-width="2.00" stroke-opacity="1.00" stroke-linejoin="round"/>
<path d="M1125.19,625.98 Q1160.86,818.27 1207.90,891.67" fill="none" stroke="rgb(0, 0, 0)" stroke-width="2.00" stroke-opacity="1.00" stroke-linejoin="round"/>
<path d="M1160.09,800.51 Q1185.83,880.19 1230.61,945.77" fill="none" stroke="rgb(0, 0, 0)" stroke-width="2.00" stroke-opacity="1.00" stroke-linejoin="round"/>
<path d="M1207.22,892.01 Q1275.75,1004.28 1351.20,1073.17" fill="none" stroke="rgb(0, 0, 0)" stroke-width="2.00" stroke-opacity="1.00" stroke-linejoin="round"/>
<path d="M1229.82,944.13 Q1315.48,1062.60 1402.96,1129.67" fill="none" stroke="rgb(0, 0, 0)" stroke-width="2.00" stroke-opacity="1.00" stroke-linejoin="round"/>
<path d="M1351.61,1073.58 Q1403.26,1127.02 1425.95,1134.78" fill="none" stroke="rgb(0, 0, 0)" stroke-width="2.00" stroke-opacity="1.00" stroke-linejoin="round"/>
<path d="M1109.59,156.63 Q1097.45,353.60 1167.60,464.22" fill="none" stroke="rgb(0, 0, 0)" stroke-width="2.00" stroke-opacity="1.00" stroke-linejoin="round"/>
<path d="M1111.44,402.57 Q1114.67,355.18 1118.35,340.46" fill="none" stroke="rgb(0, 0, 0)" stroke-width="2.00" stroke-opacity="1.00" stroke-linejoin="round"/>
<path d="M1180.90,38.30 Q1128.92,230.81 1144.32,352.74" fill="none" stroke="rgb(0, 0, 0)" stroke-width="2.00" stroke-opacity="1.00" stroke-linejoin="round"/>
<path d="M1144.75,352.70 Q1156.20,436.77 1166.26,459.95" fill="none" stroke="rgb(0, 0, 0)" stroke-width="2.00" stroke-opacity="1.00" stroke-linejoin="round"/>
<path d="M1149.42,184.42 Q1192.42,79.58 1229.69,25.11" fill="none" stroke="rgb(0, 0, 0)" stroke-width="2.00" stroke-opacity="1.00" stroke-linejoin="round"/>
<path d="M1252.71,34.46 Q1246.94,187.31 1282.99,276.71" fill="none" stroke="rgb(0, 0, 0)" stroke-width="2.00" stroke-opacity="1.00" stroke-linejoin="round"/>
<path d="M1316.49,32.11 Q1268.40,181.74 1282.29,276.33" fill="none" stroke="rgb(0, 0, 0)" stroke-width="2.00" stroke-opacity="1.00" stroke-linejoin="round"/>
<path d="M1285.52,160.51 Q1303.17,100.24 1351.39,31.79" fill="none" stroke="rgb(0, 0, 0)" stroke-width="2.00" stroke-opacity="1.00" stroke-linejoin="round"/>
<path d="M1294.13,140.70 Q1316.09,128.65 1385.82,119.61" fill="none" stroke="rgb(0, 0, 0)" stroke-width="2.00" stroke-opacity="1.00" stroke-linejoin="round"/>
<path d="M1387.55,36.53 Q1374.20,107.13 1403.47,185.47" fill="none" stroke="rgb(0, 0, 0)" stroke-width="2.00" stroke-opacity="1.00" stroke-linejoin="round"/>
<path d="M1408.21,30.07 Q1389.27,120.90 1402.61,183.32" fill="none" stroke="rgb(0, 0, 0)" stroke-width="2.00" stroke-opacity="1.00" stroke-linejoin="round"/>
<path d="M1418.97,40.40 Q1423.71,151.90 1444.80,214.32" fill="none" stroke="rgb(0, 0, 0)" stroke-width="2.00" stroke-opacity="1.00" stroke-linejoin="round"/>
<path d="M1444.37,208.29 Q1449.53,145.44 1507.65,35.24" fill="none" stroke="rgb(0, 0, 0)" stroke-width="2.00" stroke-opacity="1.00" stroke-linejoin="round"/>
<path d="M1465.72,126.86 Q1495.04,131.49 1543.50,147.54" fill="none" stroke="rgb(0, 0, 0)" stroke-width="2.00" stroke-opacity="1.00" stroke-linejoin="round"/>
<path d="M1397.74,119.84 Q1421.21,118.87 1423.66,119.60" fill="none" stroke="rgb(0, 0, 0)" stroke-width="2.00" stroke-opacity="1.00" stroke-linejoin="round"/>
<path d="M1514.65,138.85 Q1545.14,157.53 1545.14,158.36" fill="none" stroke="rgb(0, 0, 0)" stroke-width="2.00" stroke-opacity="1.00" stroke-linejoin="round"/>
<path d="M1544.92,26.68 Q1540.35,144.63 1552.55,214.28" fill="none" stroke="rgb(0, 0, 0)" stroke-width="2.00" stroke-opacity="1.00" stroke-linejoin="round"/>
<path d="M1574.41,41.42 Q1557.12,124.29 1552.55,216.31" fill="none" stroke="rgb(0, 0, 0)" stroke-width="2.00" stroke-opacity="1.00" stroke-linejoin="round"/>
<path d="M1570.34,67.86 Q1566.78,221.90 1618.13,329.68" fill="none" stroke="rgb(0, 0, 0)" stroke-width="2.00" stroke-opacity="1.00" stroke-linejoin="round"/>
<path d="M1557.62,153.82 Q1570.24,158.73 1572.70,161.00" fill="none" stroke="rgb(0, 0, 0)" stroke-width="2.00" stroke-opacity="1.00" stroke-linejoin="round"/>
<path d="M1556.92,164.34 Q1573.75,174.68 1574.10,176.26" fill="none" stroke="rgb(0, 0, 0)" stroke-width="2.00" stroke-opacity="1.00" stroke-linejoin="round"/>
<path d="M1616.73,326.03 Q1626.26,197.01 1722.29,26.21" fill="none" stroke="rgb(0, 0, 0)" stroke-width="2.00" stroke-opacity="1.00" stroke-linejoin="round"/>
<path d="M1643.70,205.71 Q1700.13,114.45 1812.41,24.99" fill="none" stroke="rgb(0, 0, 0)" stroke-width="2.00" stroke-opacity="1.00" stroke-linejoin="round"/>
<path d="M1767.63,177.94 Q1840.30,67.63 1849.38,17.45" fill="none" stroke="rgb(0, 0, 0)" stroke-width="2.00" stroke-opacity="1.00" stroke-linejoin="round"/>
<path d="M1763.30,181.83 Q1880.96,64.17 1895.24,17.02" fill="none" stroke="rgb(0, 0, 0)" stroke-width="2.00" stroke-opacity="1.00" stroke-linejoin="round"/>
<path d="M1457.19,156.07 Q1502.40,167.19 1546.50,198.69" fill="none" stroke="rgb(0, 0, 0)" stroke-width="2.00" stroke-opacity="1.00" stroke-linejoin="round"/>
<path d="M1519.45,182.76 Q1558.36,225.38 1567.63,231.68" fill="none" stroke="rgb(0, 0, 0)" stroke-width="2.00" stroke-opacity="1.00" stroke-linejoin="round"/>
<path d="M1449.78,178.88 Q1527.40,205.10 1562.10,226.95" fill="none" stroke="rgb(0, 0, 0)" stroke-width="2.00" stroke-opacity="1.00" stroke-linejoin="round"/>
<path d="M1281.48,209.99 Q1346.04,166.42 1433.19,175.13" fill="none" stroke="rgb(0, 0, 0)" stroke-width="2.00" stroke-opacity="1.00" stroke-linejoin="round"/>
<path d="M1283.85,177.91 Q1332.58,147.01 1388.82,146.22" fill="none" stroke="rgb(0, 0, 0)" stroke-width="2.00" stroke-opacity="1.00" stroke-linejoin="round"/>
<path d="M1397.53,146.77 Q1417.34,146.33 1429.74,150.47" fill="none" stroke="rgb(0, 0, 0)" stroke-width="2.00" stroke-opacity="1.00" stroke-linejoin="round"/>
<path d="M1173.92,309.58 Q1205.84,235.59 1259.52,194.48" fill="none" stroke="rgb(0, 0, 0)" stroke-width="2.00" stroke-opacity="1.00" stroke-linejoin="round"/>
<path d="M1174.05,310.26 Q1210.87,310.99 1214.87,310.99" fill="none" stroke="rgb(0, 0, 0)" stroke-width="2.00" stroke-opacity="1.00" stroke-linejoin="round"/>
<path d="M1207.58,310.26 Q1229.09,265.07 1265.18,224.61" fill="none" stroke="rgb(0, 0, 0)" stroke-width="2.00" stroke-opacity="1.00" stroke-linejoin="round"/>
<path d="M1168.58,241.01 Q1199.57,200.55 1256.43,162.28" fill="none" stroke="rgb(0, 0, 0)" stroke-width="2.00" stroke-opacity="1.00" stroke-linejoin="round"/>
<path d="M1216.51,315.94 C1216.51,315.94 1215.74,309.56 1215.74,309.56 C1215.74,309.56 1211.52,313.45 1211.52,313.45 C1211.52,313.45 1209.63,315.21 1209.63,315.21 C1209.63,315.21 1212.94,308.83 1212.94,308.83 C1212.89,310.17 1210.90,315.33 1210.64,316.06 C1210.47,316.55 1210.19,317.38 1209.81,318.58" fill="none" stroke="rgb(255, 255, 255)" stroke-width="6.00" stroke-opacity="1.00" stroke-linejoin="round"/>
<path d="M1274.99,420.86 Q1352.89,447.93 1420.29,429.42" fill="none" stroke="rgb(0, 0, 0)" stroke-width="2.00" stroke-opacity="1.00" stroke-linejoin="round"/>
<path d="M1420.61,429.79 Q1473.95,416.24 1529.20,388.72" fill="none" stroke="rgb(0, 0, 0)" stroke-width="2.00" stroke-opacity="1.00" stroke-linejoin="round"/>
<path d="M1415.74,436.98 Q1483.90,415.82 1523.27,392.32" fill="none" stroke="rgb(0, 0, 0)" stroke-width="2.00" stroke-opacity="1.00" stroke-linejoin="round"/>
<path d="M1505.49,412.43 Q1539.36,399.30 1537.24,395.92" fill="none" stroke="rgb(0, 0, 0)" stroke-width="2.00" stroke-opacity="1.00" stroke-linejoin="round"/>
<path d="M1270.98,424.29 Q1281.28,424.89 1283.66,425.68" fill="none" stroke="rgb(0, 0, 0)" stroke-width="2.00" stroke-opacity="1.00" stroke-linejoin="round"/>
<path d="M1270.39,424.09 Q1318.71,451.62 1395.56,441.72" fill="none" stroke="rgb(0, 0, 0)" stroke-width="2.00" stroke-opacity="1.00" stroke-linejoin="round"/>
<path d="M1393.56,442.16 Q1416.70,437.39 1417.89,436.49" fill="none" stroke="rgb(0, 0, 0)" stroke-width="2.00" stroke-opacity="1.00" stroke-linejoin="round"/>
<path d="M1248.10,436.82 Q1279.71,452.72 1333.74,460.77" fill="none" stroke="rgb(0, 0, 0)" stroke-width="2.00" stroke-opacity="1.00" stroke-linejoin="round"/>
<path d="M1221.67,433.94 Q1264.01,456.74 1318.22,464.98" fill="none" stroke="rgb(0, 0, 0)" stroke-width="2.00" stroke-opacity="1.00" stroke-linejoin="round"/>
<path d="M1333.21,271.86 Q1375.72,202.19 1441.27,215.77" fill="none" stroke="rgb(0, 0, 0)" stroke-width="2.00" stroke-opacity="1.00" stroke-linejoin="round"/>
<path d="M1442.45,216.65 Q1507.70,234.66 1522.46,310.84" fill="none" stroke="rgb(0, 0, 0)" stroke-width="2.00" stroke-opacity="1.00" stroke-linejoin="round"/>
<path d="M1469.91,402.36 Q1521.87,376.97 1521.87,311.43" fill="none" stroke="rgb(0, 0, 0)" stroke-width="2.00" stroke-opacity="1.00" stroke-linejoin="round"/>
<path d="M1371.89,402.36 Q1423.85,432.78 1473.45,400.59" fill="none" stroke="rgb(0, 0, 0)" stroke-width="2.00" stroke-opacity="1.00" stroke-linejoin="round"/>
<path d="M1328.19,334.46 Q1329.66,368.71 1373.07,402.96" fill="none" stroke="rgb(0, 0, 0)" stroke-width="2.00" stroke-opacity="1.00" stroke-linejoin="round"/>
<path d="M1327.89,335.05 Q1327.60,267.44 1376.61,230.53" fill="none" stroke="rgb(0, 0, 0)" stroke-width="2.00" stroke-opacity="1.00" stroke-linejoin="round"/>
<path d="M1377.49,231.12 Q1416.17,207.21 1457.21,226.99" fill="none" stroke="rgb(0, 0, 0)" stroke-width="2.00" stroke-opacity="1.00" stroke-linejoin="round"/>
<path d="M1457.51,228.17 Q1510.36,257.10 1515.08,316.15" fill="none" stroke="rgb(0, 0, 0)" stroke-width="2.00" stroke-opacity="1.00" stroke-linejoin="round"/>
<path d="M1484.37,393.21 Q1516.85,348.92 1514.49,312.02" fill="none" stroke="rgb(0, 0, 0)" stroke-width="2.00" stroke-opacity="1.00" stroke-linejoin="round"/>
<path d="M1333.24,272.45 Q1303.19,325.87 1337.19,374.44" fill="none" stroke="rgb(0, 0, 0)" stroke-width="2.00" stroke-opacity="1.00" stroke-linejoin="round"/>
<path d="M1337.25,374.42 Q1368.59,421.64 1417.34,417.51" fill="none" stroke="rgb(0, 0, 0)" stroke-width="2.00" stroke-opacity="1.00" stroke-linejoin="round"/>
<path d="M1405.47,303.59 C1405.47,303.59 1405.55,303.59 1405.55,303.59 C1404.87,309.64 1404.42,314.51 1404.57,317.49 C1404.78,321.18 1406.37,326.49 1408.04,330.08 C1409.48,333.10 1411.78,336.42 1413.36,337.36 C1414.93,338.27 1418.42,339.10 1420.34,339.10 C1422.41,339.06 1425.94,338.05 1428.05,336.53 C1430.45,334.74 1433.42,330.10 1434.38,326.69 C1434.96,324.52 1435.57,319.74 1435.60,317.11 C1435.63,315.33 1435.46,313.43 1435.18,311.74" fill="none" stroke="rgb(0, 0, 0)" stroke-width="2.00" stroke-opacity="1.00" stroke-linejoin="round"/>
<path d="M1404.76,313.88 C1404.78,314.16 1404.70,314.69 1404.47,315.76 C1403.94,318.35 1403.73,322.69 1404.01,325.64 C1404.21,327.60 1405.46,333.14 1406.82,335.79 C1408.35,338.69 1413.75,343.34 1416.12,344.34 C1418.06,345.10 1423.09,345.23 1425.61,344.18 C1428.63,342.87 1431.72,340.46 1432.55,339.11 C1434.43,335.93 1435.47,326.15 1435.72,321.84 C1435.87,319.23 1435.93,317.82 1435.92,317.43" fill="none" stroke="rgb(0, 0, 0)" stroke-width="2.00" stroke-opacity="1.00" stroke-linejoin="round"/>
<path d="M1405.17,305.65 C1405.39,305.40 1405.56,305.14 1405.67,304.69 C1406.50,301.59 1408.51,297.37 1410.22,295.88 C1411.78,294.56 1415.56,293.00 1417.03,292.90 C1418.49,292.83 1421.81,293.78 1423.84,294.89 C1426.10,296.16 1429.58,299.30 1430.71,301.49 C1431.75,303.56 1433.67,310.33 1434.10,313.29 C1434.43,315.62 1434.27,316.89 1434.14,317.37" fill="none" stroke="rgb(0, 0, 0)" stroke-width="2.00" stroke-opacity="1.00" stroke-linejoin="round"/>
<path d="M1672.50,457.22 C1672.50,457.22 1673.31,456.35 1673.31,456.35 C1673.36,456.34 1670.95,469.50 1670.27,476.47 C1669.95,480.05 1669.67,486.52 1669.74,489.26 C1669.87,492.62 1670.79,495.57 1673.71,498.72 C1674.04,499.07 1680.04,505.25 1682.31,507.59 C1686.24,511.76 1690.41,516.48 1690.96,517.16 C1691.11,517.35 1691.33,517.63 1691.60,518.01" fill="none" stroke="rgb(0, 0, 0)" stroke-width="2.00" stroke-opacity="1.00" stroke-linejoin="round"/>
<path d="M1674.38,456.38 C1674.38,456.38 1674.59,456.27 1674.59,456.27 C1674.70,456.35 1677.73,474.51 1678.42,477.48 C1681.57,490.17 1687.24,506.34 1689.94,513.59 C1690.43,514.83 1691.27,516.98 1691.57,517.80 C1691.58,517.82 1691.59,517.86 1691.58,517.85" fill="none" stroke="rgb(0, 0, 0)" stroke-width="2.00" stroke-opacity="1.00" stroke-linejoin="round"/>
<path d="M1517.31,883.76 Q1536.78,855.65 1633.39,839.06" fill="none" stroke="rgb(0, 0, 0)" stroke-width="2.00" stroke-opacity="1.00" stroke-linejoin="round"/>
<path d="M1632.49,839.37 Q1769.38,810.96 1815.87,808.80" fill="none" stroke="rgb(0, 0, 0)" stroke-width="2.00" stroke-opacity="1.00" stroke-linejoin="round"/>
<path d="M1815.36,808.89 Q1880.64,807.01 1912.33,801.05" fill="none" stroke="rgb(0, 0, 0)" stroke-width="2.00" stroke-opacity="1.00" stroke-linejoin="round"/>
<path d="M1911.08,801.05 Q1932.73,798.85 1935.87,801.36" fill="none" stroke="rgb(0, 0, 0)" stroke-width="2.00" stroke-opacity="1.00" stroke-linejoin="round"/>
<path d="M1532.27,893.67 Q1545.49,894.55 1552.24,889.56" fill="none" stroke="rgb(0, 0, 0)" stroke-width="2.00" stroke-opacity="1.00" stroke-linejoin="round"/>
<path d="M1551.95,890.15 Q1564.57,877.52 1657.94,859.90" fill="none" stroke="rgb(0, 0, 0)" stroke-width="2.00" stroke-opacity="1.00" stroke-linejoin="round"/>
<path d="M1517.20,884.15 Q1498.30,936.38 1504.90,969.71" fill="none" stroke="rgb(0, 0, 0)" stroke-width="2.00" stroke-opacity="1.00" stroke-linejoin="round"/>
<path d="M1513.52,899.05 C1513.52,899.05 1513.52,898.57 1513.52,898.57 C1517.59,900.06 1529.36,903.93 1535.38,906.22 C1539.70,907.83 1551.85,910.57 1556.62,910.35 C1558.95,910.21 1562.74,908.11 1564.01,906.37 C1565.13,904.79 1565.87,900.08 1566.12,896.75 C1566.47,890.96 1566.57,887.29 1566.50,883.89 C1566.50,883.95 1566.50,883.98 1566.51,884.00 C1566.51,884.02 1566.51,884.05 1566.52,884.08" fill="none" stroke="rgb(0, 0, 0)" stroke-width="2.00" stroke-opacity="1.00" stroke-linejoin="round"/>
<path d="M1504.45,970.01 Q1503.54,1005.22 1528.12,998.84" fill="none" stroke="rgb(0, 0, 0)" stroke-width="2.00" stroke-opacity="1.00" stroke-linejoin="round"/>
<path d="M1527.48,999.36 Q1661.46,965.87 1717.52,958.11" fill="none" stroke="rgb(0, 0, 0)" stroke-width="2.00" stroke-opacity="1.00" stroke-linejoin="round"/>
<path d="M1718.03,957.63 Q1851.88,948.27 1894.88,946.53" fill="none" stroke="rgb(0, 0, 0)" stroke-width="2.00" stroke-opacity="1.00" stroke-linejoin="round"/>
<path d="M1892.57,946.55 Q1931.09,944.09 1931.55,943.32" fill="none" stroke="rgb(0, 0, 0)" stroke-width="2.00" stroke-opacity="1.00" stroke-linejoin="round"/>
<path d="M1536.06,996.92 Q1552.42,919.87 1635.93,864.76" fill="none" stroke="rgb(0, 0, 0)" stroke-width="2.00" stroke-opacity="1.00" stroke-linejoin="round"/>
<path d="M1657.45,860.51 Q1763.34,832.91 1836.19,834.26" fill="none" stroke="rgb(0, 0, 0)" stroke-width="2.00" stroke-opacity="1.00" stroke-linejoin="round"/>
<path d="M1836.83,834.02 Q1902.10,836.14 1940.34,848.59" fill="none" stroke="rgb(0, 0, 0)" stroke-width="2.00" stroke-opacity="1.00" stroke-linejoin="round"/>
</g>
</svg>
