<?xml version="1.0" encoding="UTF-8" standalone="no"?>
<!DOCTYPE svg PUBLIC "-//W3C//DTD SVG 1.1//EN" "http://www.w3.org/Graphics/SVG/1.1/DTD/svg11.dtd">
<svg width="720.00" height="405.00" viewBox="0.00 0.00 1920.00 1080.00" xmlns="http://www.w3.org/2000/svg" xmlns:xlink="http://www.w3.org/1999/xlink">
<g stroke-linecap="round" transform="translate(-4.00, -46.00)" id="Green">
<path d="M717.08,589.54 C717.53,588.95 723.90,586.36 728.68,585.06 C729.09,584.95 729.39,584.88 729.57,584.86 C729.65,584.86 729.75,584.86 729.87,584.89" fill="none" stroke="rgb(0, 255, 0)" stroke-width="2.00" stroke-opacity="1.00" stroke-linejoin="round"/>
<path d="M728.26,586.94 C728.26,586.94 722.36,590.21 722.36,590.21 C722.36,590.21 728.70,585.24 728.70,585.24 C727.92,585.31 723.14,587.48 721.11,587.93 C720.11,588.15 718.14,588.42 717.59,588.46 C717.59,588.46 718.79,587.67 718.79,587.67" fill="none" stroke="rgb(255, 255, 255)" stroke-width="6.00" stroke-opacity="1.00" stroke-linejoin="round"/>
</g>
<g stroke-linecap="round" transform="translate(-4.00, -46.00)" id="Blue">
<path d="M1207.54,406.44 C1207.59,406.46 1207.68,406.56 1207.80,406.76 C1209.59,409.31 1213.00,414.48 1213.96,418.72 C1214.61,421.88 1212.55,426.75 1212.16,427.23 C1212.05,427.35 1211.91,427.43 1211.75,427.47 C1211.72,427.47 1211.69,427.47 1211.66,427.47" fill="none" stroke="rgb(0, 0, 255)" stroke-width="2.00" stroke-opacity="1.00" stroke-linejoin="round"/>
<path d="M1218.72,504.50 C1219.23,505.19 1219.57,505.71 1219.72,506.05 C1220.17,507.07 1222.57,517.27 1223.05,520.28 C1223.27,521.64 1223.57,524.64 1223.68,525.80 C1223.71,526.14 1223.76,526.66 1223.84,527.36" fill="none" stroke="rgb(0, 0, 255)" stroke-width="2.00" stroke-opacity="1.00" stroke-linejoin="round"/>
<path d="M1300.80,40.78 Q1329.83,90.04 1366.70,114.51" fill="none" stroke="rgb(0, 0, 255)" stroke-width="2.00" stroke-opacity="1.00" stroke-linejoin="round"/>
<path d="M1266.22,41.11 Q1291.01,85.47 1309.28,147.46" fill="none" stroke="rgb(0, 0, 255)" stroke-width="2.00" stroke-opacity="1.00" stroke-linejoin="round"/>
<path d="M1203.58,39.48 Q1232.94,140.28 1234.57,153.01" fill="none" stroke="rgb(0, 0, 255)" stroke-width="2.00" stroke-opacity="1.00" stroke-linejoin="round"/>
<path d="M1245.24,168.09 C1244.71,169.56 1243.36,173.34 1243.14,174.11 C1242.93,174.84 1241.58,181.42 1241.30,182.74 C1240.35,180.01 1240.53,169.76 1241.77,159.82 C1242.16,156.62 1242.52,149.63 1241.80,148.56 C1241.65,148.36 1241.31,148.16 1240.77,147.97 C1238.92,148.74 1236.40,153.04 1235.85,155.94 C1235.58,157.44 1235.21,158.14 1234.57,158.52 C1234.57,158.52 1233.58,150.98 1233.58,150.98 C1233.58,150.98 1232.12,153.21 1232.12,153.21" fill="none" stroke="rgb(255, 255, 255)" stroke-width="6.00" stroke-opacity="1.00" stroke-linejoin="round"/>
<path d="M1183.49,40.14 Q1198.14,152.77 1161.71,269.59" fill="none" stroke="rgb(0, 0, 255)" stroke-width="2.00" stroke-opacity="1.00" stroke-linejoin="round"/>
<path d="M1138.98,323.77 Q1161.01,274.42 1161.63,268.53" fill="none" stroke="rgb(0, 0, 255)" stroke-width="2.00" stroke-opacity="1.00" stroke-linejoin="round"/>
<path d="M1050.52,293.52 Q1130.56,191.27 1146.75,87.18" fill="none" stroke="rgb(0, 0, 255)" stroke-width="2.00" stroke-opacity="1.00" stroke-linejoin="round"/>
<path d="M1149.87,36.39 Q1148.66,76.02 1145.66,90.73" fill="none" stroke="rgb(0, 0, 255)" stroke-width="2.00" stroke-opacity="1.00" stroke-linejoin="round"/>
<path d="M1099.75,90.38 Q1084.67,154.86 1030.24,239.44" fill="none" stroke="rgb(0, 0, 255)" stroke-width="2.00" stroke-opacity="1.00" stroke-linejoin="round"/>
<path d="M1100.58,89.96 Q1082.16,193.80 1034.43,289.69" fill="none" stroke="rgb(0, 0, 255)" stroke-width="2.00" stroke-opacity="1.00" stroke-linejoin="round"/>
<path d="M1011.38,257.64 Q1027.71,243.38 1030.24,239.93" fill="none" stroke="rgb(0, 0, 255)" stroke-width="2.00" stroke-opacity="1.00" stroke-linejoin="round"/>
<path d="M954.01,95.59 Q984.35,53.83 987.61,39.48" fill="none" stroke="rgb(0, 0, 255)" stroke-width="2.00" stroke-opacity="1.00" stroke-linejoin="round"/>
<path d="M962.49,107.66 Q989.24,64.92 993.48,41.11" fill="none" stroke="rgb(0, 0, 255)" stroke-width="2.00" stroke-opacity="1.00" stroke-linejoin="round"/>
<path d="M723.90,587.95 C723.91,587.93 725.19,589.67 728.04,591.45 C729.36,592.26 732.50,593.09 736.16,592.93 C738.83,592.78 740.29,589.34 740.56,588.51 C740.62,588.31 740.68,588.08 740.74,587.81" fill="none" stroke="rgb(0, 0, 255)" stroke-width="2.00" stroke-opacity="1.00" stroke-linejoin="round"/>
<path d="M715.12,590.03 C715.12,590.03 705.94,594.96 705.94,594.96 C706.21,595.67 708.28,598.76 710.77,600.84 C711.69,601.60 715.21,603.35 718.14,604.07 C720.86,604.71 726.63,604.98 728.93,604.55 C729.67,604.40 736.23,602.68 738.40,601.79 C741.89,600.32 745.96,596.89 747.91,593.59 C748.58,592.44 749.03,591.09 749.44,589.40 C749.52,589.05 749.57,588.75 749.58,588.71" fill="none" stroke="rgb(0, 0, 255)" stroke-width="2.00" stroke-opacity="1.00" stroke-linejoin="round"/>
<path d="M920.36,860.25 C920.38,859.94 920.52,859.34 920.76,858.77 C921.42,857.26 925.38,852.53 928.08,849.82 C930.63,847.29 933.76,845.48 935.06,845.23 C935.20,845.21 935.51,845.17 935.99,845.11" fill="none" stroke="rgb(0, 0, 255)" stroke-width="2.00" stroke-opacity="1.00" stroke-linejoin="round"/>
<path d="M935.48,844.94 C935.49,844.80 935.53,844.70 935.72,844.52 C936.42,843.97 951.28,841.81 958.27,841.38 C972.74,840.75 976.49,841.48 977.29,841.69 C977.71,841.98 977.80,844.87 977.23,846.37 C976.68,847.74 973.54,852.90 972.07,854.99 C971.19,856.23 970.21,857.35 969.42,858.08 C969.29,858.20 969.22,858.24 969.20,858.22 C969.20,858.22 969.15,858.20 969.15,858.20" fill="none" stroke="rgb(0, 0, 255)" stroke-width="2.00" stroke-opacity="1.00" stroke-linejoin="round"/>
<path d="M857.62,804.39 C857.62,804.39 857.57,804.43 857.57,804.43 C857.53,806.84 858.10,809.15 859.41,810.40 C861.27,812.11 864.51,813.62 866.08,814.01 C866.40,814.09 866.81,814.12 867.30,814.10 C867.40,814.09 867.49,814.09 867.58,814.11" fill="none" stroke="rgb(0, 0, 255)" stroke-width="2.00" stroke-opacity="1.00" stroke-linejoin="round"/>
<path d="M884.08,815.90 Q949.99,808.92 975.79,827.75" fill="none" stroke="rgb(0, 0, 255)" stroke-width="2.00" stroke-opacity="1.00" stroke-linejoin="round"/>
<path d="M857.85,806.01 C857.19,805.04 856.63,802.35 856.75,800.20 C856.90,797.87 857.93,793.75 859.60,790.27 C861.56,786.27 863.53,781.29 863.81,779.08 C863.95,777.87 863.65,775.99 863.19,775.37 C863.03,775.16 862.63,774.78 862.00,774.23" fill="none" stroke="rgb(0, 0, 255)" stroke-width="2.00" stroke-opacity="1.00" stroke-linejoin="round"/>
<path d="M832.74,755.77 C832.85,755.74 832.94,755.73 833.66,755.73 C840.41,755.73 844.49,756.20 845.29,756.32 C845.54,756.36 846.02,756.43 846.73,756.55" fill="none" stroke="rgb(0, 0, 255)" stroke-width="2.00" stroke-opacity="1.00" stroke-linejoin="round"/>
<path d="M799.03,711.51 C799.06,711.73 799.10,711.93 799.15,712.12 C799.31,712.69 799.74,714.36 799.96,716.14 C800.12,717.45 800.52,720.63 800.75,722.50 C800.81,722.95 800.86,723.41 800.92,723.87" fill="none" stroke="rgb(0, 0, 255)" stroke-width="2.00" stroke-opacity="1.00" stroke-linejoin="round"/>
<path d="M902.27,883.77 C902.27,883.77 902.43,883.63 902.43,883.63 C902.21,884.76 899.85,894.47 899.65,895.84 C899.57,896.43 901.54,900.80 903.66,904.54 C908.13,912.37 911.32,915.12 911.90,915.50" fill="none" stroke="rgb(0, 0, 255)" stroke-width="2.00" stroke-opacity="1.00" stroke-linejoin="round"/>
<path d="M463.18,1128.71 Q483.30,1090.47 521.20,1046.53" fill="none" stroke="rgb(0, 0, 255)" stroke-width="2.00" stroke-opacity="1.00" stroke-linejoin="round"/>
<path d="M494.37,1131.72 Q563.80,1040.16 642.62,983.81" fill="none" stroke="rgb(0, 0, 255)" stroke-width="2.00" stroke-opacity="1.00" stroke-linejoin="round"/>
<path d="M769.44,1138.83 Q817.18,1040.31 896.76,919.05" fill="none" stroke="rgb(0, 0, 255)" stroke-width="2.00" stroke-opacity="1.00" stroke-linejoin="round"/>
<path d="M774.51,1126.08 Q861.23,997.84 906.43,954.21" fill="none" stroke="rgb(0, 0, 255)" stroke-width="2.00" stroke-opacity="1.00" stroke-linejoin="round"/>
<path d="M922.53,943.48 Q924.82,982.15 941.52,989.47" fill="none" stroke="rgb(0, 0, 255)" stroke-width="2.00" stroke-opacity="1.00" stroke-linejoin="round"/>
<path d="M922.07,942.80 Q966.23,927.93 977.90,903.22" fill="none" stroke="rgb(0, 0, 255)" stroke-width="2.00" stroke-opacity="1.00" stroke-linejoin="round"/>
<path d="M963.97,907.96 C963.95,907.88 964.28,907.47 966.37,906.24 C968.49,904.98 974.64,900.58 975.48,900.42 C976.01,900.34 976.49,900.36 976.99,900.46 C977.54,900.67 977.49,903.28 977.21,904.37 C977.16,904.57 977.08,904.76 976.98,904.94" fill="none" stroke="rgb(0, 0, 255)" stroke-width="2.00" stroke-opacity="1.00" stroke-linejoin="round"/>
<path d="M1023.80,983.23 Q1029.03,1094.79 1043.13,1136.68" fill="none" stroke="rgb(0, 0, 255)" stroke-width="2.00" stroke-opacity="1.00" stroke-linejoin="round"/>
<path d="M1049.57,966.72 Q1039.50,1052.91 1056.02,1158.43" fill="none" stroke="rgb(0, 0, 255)" stroke-width="2.00" stroke-opacity="1.00" stroke-linejoin="round"/>
<path d="M1062.46,967.92 Q1086.63,1106.47 1112.81,1160.04" fill="none" stroke="rgb(0, 0, 255)" stroke-width="2.00" stroke-opacity="1.00" stroke-linejoin="round"/>
<path d="M1236.26,1111.97 C1236.26,1111.97 1236.26,1111.90 1236.26,1111.90 C1236.26,1111.90 1237.89,1116.00 1237.89,1116.00 C1238.73,1115.99 1239.72,1115.41 1240.68,1114.03 C1242.25,1111.78 1246.00,1103.93 1246.66,1102.24" fill="none" stroke="rgb(0, 0, 255)" stroke-width="2.00" stroke-opacity="1.00" stroke-linejoin="round"/>
<path d="M1243.88,1108.75 Q1283.04,1005.95 1291.94,946.31" fill="none" stroke="rgb(0, 0, 255)" stroke-width="2.00" stroke-opacity="1.00" stroke-linejoin="round"/>
<path d="M1291.50,945.87 Q1305.29,999.72 1307.52,1028.20" fill="none" stroke="rgb(0, 0, 255)" stroke-width="2.00" stroke-opacity="1.00" stroke-linejoin="round"/>
<path d="M1308.85,1029.54 Q1395.19,877.33 1409.43,813.25" fill="none" stroke="rgb(0, 0, 255)" stroke-width="2.00" stroke-opacity="1.00" stroke-linejoin="round"/>
<path d="M1352.29,750.73 Q1388.32,800.45 1407.87,813.30" fill="none" stroke="rgb(0, 0, 255)" stroke-width="2.00" stroke-opacity="1.00" stroke-linejoin="round"/>
<path d="M1268.49,830.34 Q1331.90,778.10 1352.57,750.45" fill="none" stroke="rgb(0, 0, 255)" stroke-width="2.00" stroke-opacity="1.00" stroke-linejoin="round"/>
<path d="M1271.01,828.38 Q1297.26,793.47 1302.01,780.62" fill="none" stroke="rgb(0, 0, 255)" stroke-width="2.00" stroke-opacity="1.00" stroke-linejoin="round"/>
<path d="M1301.04,781.06 C1301.17,781.00 1301.26,780.95 1301.32,780.90 C1301.50,780.75 1301.94,780.06 1302.19,779.55 C1302.61,778.67 1303.49,775.63 1303.55,775.33" fill="none" stroke="rgb(0, 0, 255)" stroke-width="2.00" stroke-opacity="1.00" stroke-linejoin="round"/>
<path d="M1336.80,274.03 Q1356.80,322.94 1401.38,351.03" fill="none" stroke="rgb(0, 0, 255)" stroke-width="2.00" stroke-opacity="1.00" stroke-linejoin="round"/>
<path d="M1336.80,273.76 Q1363.55,301.05 1425.15,301.32" fill="none" stroke="rgb(0, 0, 255)" stroke-width="2.00" stroke-opacity="1.00" stroke-linejoin="round"/>
<path d="M1282.63,238.35 Q1337.48,331.00 1368.98,451.45" fill="none" stroke="rgb(0, 0, 255)" stroke-width="2.00" stroke-opacity="1.00" stroke-linejoin="round"/>
<path d="M1279.29,310.99 Q1337.48,364.36 1367.87,449.97" fill="none" stroke="rgb(0, 0, 255)" stroke-width="2.00" stroke-opacity="1.00" stroke-linejoin="round"/>
<path d="M1278.78,326.70 Q1325.77,409.25 1329.58,541.77" fill="none" stroke="rgb(0, 0, 255)" stroke-width="2.00" stroke-opacity="1.00" stroke-linejoin="round"/>
<path d="M1327.92,582.43 Q1329.65,542.90 1329.65,540.82" fill="none" stroke="rgb(0, 0, 255)" stroke-width="2.00" stroke-opacity="1.00" stroke-linejoin="round"/>
<path d="M1301.73,774.77 Q1370.58,615.94 1374.51,517.10" fill="none" stroke="rgb(0, 0, 255)" stroke-width="2.00" stroke-opacity="1.00" stroke-linejoin="round"/>
<path d="M1373.00,512.50 Q1402.50,594.00 1400.00,659.50" fill="none" stroke="rgb(0, 0, 255)" stroke-width="2.00" stroke-opacity="1.00" stroke-linejoin="round"/>
<path d="M1400.00,660.50 Q1448.50,524.50 1419.50,433.50" fill="none" stroke="rgb(0, 0, 255)" stroke-width="2.00" stroke-opacity="1.00" stroke-linejoin="round"/>
<path d="M1419.78,433.10 Q1425.17,447.30 1426.03,448.44" fill="none" stroke="rgb(0, 0, 255)" stroke-width="2.00" stroke-opacity="1.00" stroke-linejoin="round"/>
<path d="M1402.17,387.66 Q1418.92,430.55 1451.59,454.40" fill="none" stroke="rgb(0, 0, 255)" stroke-width="2.00" stroke-opacity="1.00" stroke-linejoin="round"/>
<path d="M1402.74,387.09 Q1445.62,418.62 1522.02,415.78" fill="none" stroke="rgb(0, 0, 255)" stroke-width="2.00" stroke-opacity="1.00" stroke-linejoin="round"/>
<path d="M1460.92,488.87 Q1501.74,603.32 1609.27,628.11" fill="none" stroke="rgb(0, 0, 255)" stroke-width="2.00" stroke-opacity="1.00" stroke-linejoin="round"/>
<path d="M1453.99,534.07 Q1490.80,613.89 1564.80,632.48" fill="none" stroke="rgb(0, 0, 255)" stroke-width="2.00" stroke-opacity="1.00" stroke-linejoin="round"/>
<path d="M1460.92,487.78 Q1526.16,511.10 1591.04,490.69" fill="none" stroke="rgb(0, 0, 255)" stroke-width="2.00" stroke-opacity="1.00" stroke-linejoin="round"/>
<path d="M601.72,40.25 Q580.65,121.86 602.11,176.66" fill="none" stroke="rgb(0, 0, 255)" stroke-width="2.00" stroke-opacity="1.00" stroke-linejoin="round"/>
<path d="M600.96,179.72 Q614.75,83.93 640.42,55.96" fill="none" stroke="rgb(0, 0, 255)" stroke-width="2.00" stroke-opacity="1.00" stroke-linejoin="round"/>
<path d="M642.05,113.33 C642.14,113.44 642.17,113.62 642.14,113.89 C642.08,114.39 638.88,131.23 638.19,139.26 C637.07,153.30 639.14,168.70 639.04,173.11 C643.25,165.73 666.08,138.60 667.41,137.10 C667.42,137.16 661.29,154.51 660.02,159.38 C658.35,166.04 658.11,166.85 657.71,167.95 C658.83,166.48 671.06,152.94 675.10,147.72 C684.51,135.25 691.73,126.84 699.05,116.68 C700.15,115.15 705.81,108.03 706.05,107.70 C706.17,107.53 706.34,107.27 706.55,106.92" fill="none" stroke="rgb(0, 0, 255)" stroke-width="2.00" stroke-opacity="1.00" stroke-linejoin="round"/>
<path d="M719.63,83.91 Q706.17,147.92 702.87,154.24" fill="none" stroke="rgb(0, 0, 255)" stroke-width="2.00" stroke-opacity="1.00" stroke-linejoin="round"/>
<path d="M705.62,152.59 Q753.97,116.33 800.94,108.09" fill="none" stroke="rgb(0, 0, 255)" stroke-width="2.00" stroke-opacity="1.00" stroke-linejoin="round"/>
<path d="M923.65,324.56 C923.85,324.27 924.02,323.74 924.06,322.89 C924.07,322.55 924.39,302.06 924.24,302.02 C926.80,310.77 929.35,322.46 930.07,327.99 C931.29,338.37 932.11,357.45 932.17,358.24 C932.27,359.36 932.55,360.46 932.55,360.53" fill="none" stroke="rgb(0, 0, 255)" stroke-width="2.00" stroke-opacity="1.00" stroke-linejoin="round"/>
<path d="M801.92,516.12 C802.07,515.79 803.87,510.09 804.27,509.10 C804.39,508.81 804.50,508.59 804.62,508.46 C804.65,508.49 804.66,508.51 804.67,508.52 C804.68,508.53 804.68,508.55 804.68,508.58" fill="none" stroke="rgb(0, 0, 255)" stroke-width="2.00" stroke-opacity="1.00" stroke-linejoin="round"/>
<path d="M798.17,543.34 C798.56,548.88 799.62,552.84 801.89,554.84 C803.92,556.55 806.52,557.50 809.67,558.02 C811.12,558.25 813.03,558.64 813.08,558.64 C815.05,558.59 819.79,549.72 824.91,539.29 C826.99,535.05 830.72,527.45 832.37,524.10 C834.46,519.94 836.97,514.93 837.41,514.09" fill="none" stroke="rgb(0, 0, 255)" stroke-width="2.00" stroke-opacity="1.00" stroke-linejoin="round"/>
<path d="M842.09,507.74 C842.52,507.38 843.06,506.80 844.62,504.98 C852.29,496.11 860.39,487.93 862.38,485.95 C863.10,485.22 863.53,484.79 863.69,484.64 C863.87,484.47 864.18,484.20 864.62,483.83 C864.62,483.83 864.74,483.85 864.74,483.85" fill="none" stroke="rgb(0, 0, 255)" stroke-width="2.00" stroke-opacity="1.00" stroke-linejoin="round"/>
<path d="M848.75,476.64 C848.85,476.63 848.95,476.60 849.07,476.57 C851.35,475.95 864.06,475.80 874.79,476.25 C890.55,477.00 905.04,479.24 906.26,479.35 C890.60,480.67 881.61,480.88 880.44,480.95 C878.35,481.08 876.65,481.28 876.62,481.37" fill="none" stroke="rgb(0, 0, 255)" stroke-width="2.00" stroke-opacity="1.00" stroke-linejoin="round"/>
<path d="M919.19,517.83 C919.19,517.83 919.71,517.78 919.71,517.78 C920.26,516.80 929.46,516.07 929.87,516.08 C930.27,516.10 930.66,516.18 931.05,516.34 C931.12,516.38 931.15,516.40 931.12,516.42" fill="none" stroke="rgb(0, 0, 255)" stroke-width="2.00" stroke-opacity="1.00" stroke-linejoin="round"/>
<path d="M946.93,528.14 C947.38,528.10 947.72,528.01 947.87,527.74 C949.81,523.98 948.90,520.41 948.58,519.94 C948.51,519.85 948.42,519.80 948.31,519.80 C948.27,519.83 948.25,519.85 948.24,519.87 C948.24,519.88 948.23,519.90 948.22,519.93" fill="none" stroke="rgb(0, 0, 255)" stroke-width="2.00" stroke-opacity="1.00" stroke-linejoin="round"/>
<path d="M726.95,585.94 C726.97,586.35 726.93,587.86 729.61,590.02 C729.61,590.02 723.76,587.69 723.76,587.69 C724.24,588.83 727.83,591.73 731.23,592.26 C733.25,592.55 739.54,591.29 739.99,591.05 C739.99,591.05 740.69,589.75 740.69,589.75 C737.72,591.01 735.00,591.49 733.03,591.37 C730.52,591.18 725.36,588.93 725.37,588.90 C725.37,588.90 727.89,586.62 727.89,586.62 C727.89,586.62 719.25,590.60 719.25,590.60 C719.25,590.60 728.29,586.00 728.29,586.00 C727.09,586.59 724.51,587.26 723.22,587.21 C722.94,587.20 722.35,587.14 721.45,587.04" fill="none" stroke="rgb(255, 255, 255)" stroke-width="6.00" stroke-opacity="1.00" stroke-linejoin="round"/>
<path d="M729.00,586.63 C729.00,586.63 729.07,586.63 729.07,586.63 C729.07,586.63 724.18,588.33 724.18,588.33 C725.46,589.86 727.40,591.54 728.95,592.04 C730.55,592.51 733.76,592.19 735.34,591.47 C737.26,590.58 738.10,590.05 739.24,589.07 C739.39,588.94 740.12,588.43 740.17,588.37" fill="none" stroke="rgb(0, 0, 255)" stroke-width="2.00" stroke-opacity="1.00" stroke-linejoin="round"/>
<path d="M740.24,588.55 C740.73,588.40 740.96,588.27 741.06,588.05 C741.09,588.00 741.11,587.94 741.14,587.89" fill="none" stroke="rgb(0, 0, 255)" stroke-width="2.00" stroke-opacity="1.00" stroke-linejoin="round"/>
<path d="M873.74,524.21 Q902.18,517.20 909.59,518.56" fill="none" stroke="rgb(0, 0, 255)" stroke-width="2.00" stroke-opacity="1.00" stroke-linejoin="round"/>
<path d="M962.76,515.06 Q972.11,513.69 976.01,521.88" fill="none" stroke="rgb(0, 0, 255)" stroke-width="2.00" stroke-opacity="1.00" stroke-linejoin="round"/>
<path d="M864.59,572.68 C864.59,572.69 864.59,572.59 864.59,572.38 C864.60,569.76 865.77,566.35 866.35,565.68 C867.58,564.69 876.69,567.40 886.12,570.61 C891.65,572.54 906.08,579.76 907.13,580.34 C908.19,580.93 915.03,585.62 916.51,587.37 C918.48,589.76 921.49,594.93 922.17,598.25 C922.40,599.48 922.63,602.30 922.57,603.06 C922.39,604.57 919.58,605.91 917.07,606.28 C914.45,606.65 910.45,606.60 908.47,606.49 C907.77,606.44 907.07,606.40 906.37,606.35" fill="none" stroke="rgb(0, 0, 255)" stroke-width="2.00" stroke-opacity="1.00" stroke-linejoin="round"/>
<path d="M1266.46,743.77 Q1275.61,654.95 1298.51,608.86" fill="none" stroke="rgb(0, 0, 255)" stroke-width="2.00" stroke-opacity="1.00" stroke-linejoin="round"/>
<path d="M1299.12,606.72 Q1322.93,674.79 1311.94,723.01" fill="none" stroke="rgb(0, 0, 255)" stroke-width="2.00" stroke-opacity="1.00" stroke-linejoin="round"/>
<path d="M1266.14,744.08 Q1262.24,794.42 1262.24,795.49" fill="none" stroke="rgb(0, 0, 255)" stroke-width="2.00" stroke-opacity="1.00" stroke-linejoin="round"/>
<path d="M579.19,226.70 Q558.50,265.32 599.19,410.15" fill="none" stroke="rgb(0, 0, 255)" stroke-width="2.00" stroke-opacity="1.00" stroke-linejoin="round"/>
<path d="M599.62,410.47 Q631.93,525.14 647.40,538.79" fill="none" stroke="rgb(0, 0, 255)" stroke-width="2.00" stroke-opacity="1.00" stroke-linejoin="round"/>
<path d="M1372.24,1084.81 Q1415.02,986.07 1471.89,862.31" fill="none" stroke="rgb(0, 0, 255)" stroke-width="2.00" stroke-opacity="1.00" stroke-linejoin="round"/>
<path d="M1509.66,662.55 Q1531.96,728.07 1471.44,861.85" fill="none" stroke="rgb(0, 0, 255)" stroke-width="2.00" stroke-opacity="1.00" stroke-linejoin="round"/>
<path d="M1474.66,629.38 Q1493.76,636.12 1497.13,641.46" fill="none" stroke="rgb(0, 0, 255)" stroke-width="2.00" stroke-opacity="1.00" stroke-linejoin="round"/>
<path d="M1497.98,640.89 Q1507.52,656.06 1509.21,663.93" fill="none" stroke="rgb(0, 0, 255)" stroke-width="2.00" stroke-opacity="1.00" stroke-linejoin="round"/>
<path d="M1671.25,749.80 Q1805.35,840.25 1904.35,1002.70" fill="none" stroke="rgb(0, 0, 255)" stroke-width="2.00" stroke-opacity="1.00" stroke-linejoin="round"/>
<path d="M1754.95,839.80 Q1900.75,999.55 1903.45,1000.90" fill="none" stroke="rgb(0, 0, 255)" stroke-width="2.00" stroke-opacity="1.00" stroke-linejoin="round"/>
<path d="M903.32,871.61 C903.32,871.65 903.36,871.56 903.42,871.34 C904.22,868.45 905.31,866.46 906.31,865.55 C907.16,864.81 909.11,864.22 909.96,864.34 C910.84,864.46 912.09,864.78 913.11,865.11 C913.25,865.15 913.39,865.19 913.53,865.23" fill="none" stroke="rgb(0, 0, 255)" stroke-width="2.00" stroke-opacity="1.00" stroke-linejoin="round"/>
<path d="M987.41,849.52 C987.41,849.52 988.52,849.48 988.52,849.48 C989.41,850.27 990.68,853.98 990.42,855.31 C990.35,855.64 990.21,856.04 990.02,856.51 C989.97,856.61 989.94,856.65 989.92,856.61" fill="none" stroke="rgb(0, 0, 255)" stroke-width="2.00" stroke-opacity="1.00" stroke-linejoin="round"/>
<path d="M989.42,856.81 C989.42,856.81 989.73,856.79 989.73,856.79 C989.73,856.79 989.86,858.38 989.86,858.38 C989.86,858.38 989.76,858.46 989.76,858.46 C989.76,858.46 989.73,858.33 989.73,858.33" fill="none" stroke="rgb(0, 0, 255)" stroke-width="2.00" stroke-opacity="1.00" stroke-linejoin="round"/>
</g>
<g stroke-linecap="round" transform="translate(-4.00, -46.00)" id="Red">
<path d="M737.42,578.42 C737.51,578.72 737.45,582.71 737.58,583.12 C737.95,584.13 739.92,585.87 741.58,586.57 C742.12,586.79 743.08,586.45 743.54,585.87 C744.15,585.06 744.27,582.86 743.84,581.35 C743.44,580.05 742.24,578.12 741.69,577.66 C740.23,576.55 737.11,577.22 736.71,577.80 C736.71,577.80 737.15,579.13 737.15,579.13" fill="none" stroke="rgb(255, 0, 0)" stroke-width="2.00" stroke-opacity="1.00" stroke-linejoin="round"/>
<path d="M705.10,604.64 C705.17,604.63 705.27,604.68 705.37,604.79 C705.76,605.20 708.47,607.95 711.11,609.01 C715.10,610.59 722.12,610.93 723.99,610.85 C724.44,610.83 725.25,610.77 726.42,610.68" fill="none" stroke="rgb(255, 0, 0)" stroke-width="2.00" stroke-opacity="1.00" stroke-linejoin="round"/>
<path d="M1399.70,356.35 Q1431.60,380.97 1456.91,387.56" fill="none" stroke="rgb(255, 0, 0)" stroke-width="2.00" stroke-opacity="1.00" stroke-linejoin="round"/>
<path d="M1434.37,384.09 Q1447.20,395.18 1471.13,403.51" fill="none" stroke="rgb(255, 0, 0)" stroke-width="2.00" stroke-opacity="1.00" stroke-linejoin="round"/>
<path d="M1411.83,451.11 Q1426.64,493.06 1427.34,508.22" fill="none" stroke="rgb(255, 0, 0)" stroke-width="2.00" stroke-opacity="1.00" stroke-linejoin="round"/>
<path d="M1407.25,480.02 Q1407.25,508.22 1405.48,528.67" fill="none" stroke="rgb(255, 0, 0)" stroke-width="2.00" stroke-opacity="1.00" stroke-linejoin="round"/>
<path d="M1389.62,487.78 Q1403.72,518.80 1404.78,527.26" fill="none" stroke="rgb(255, 0, 0)" stroke-width="2.00" stroke-opacity="1.00" stroke-linejoin="round"/>
<path d="M1387.85,486.37 Q1404.07,534.32 1403.01,554.41" fill="none" stroke="rgb(255, 0, 0)" stroke-width="2.00" stroke-opacity="1.00" stroke-linejoin="round"/>
<path d="M1403.01,559.35 Q1416.06,514.22 1408.66,480.37" fill="none" stroke="rgb(255, 0, 0)" stroke-width="2.00" stroke-opacity="1.00" stroke-linejoin="round"/>
<path d="M1351.66,504.50 Q1354.91,540.70 1353.01,553.67" fill="none" stroke="rgb(255, 0, 0)" stroke-width="2.00" stroke-opacity="1.00" stroke-linejoin="round"/>
<path d="M1331.13,461.54 Q1342.75,509.63 1337.07,558.80" fill="none" stroke="rgb(255, 0, 0)" stroke-width="2.00" stroke-opacity="1.00" stroke-linejoin="round"/>
<path d="M1331.94,461.00 Q1344.10,473.43 1340.05,538.27" fill="none" stroke="rgb(255, 0, 0)" stroke-width="2.00" stroke-opacity="1.00" stroke-linejoin="round"/>
<path d="M616.38,39.35 C615.61,41.78 615.17,42.96 614.34,44.78 C612.87,48.07 609.85,54.75 608.31,58.15 C606.74,61.57 604.76,65.91 604.34,66.82" fill="none" stroke="rgb(255, 0, 0)" stroke-width="2.00" stroke-opacity="1.00" stroke-linejoin="round"/>
<path d="M628.15,40.94 C628.15,40.94 628.83,40.20 628.83,40.20 C626.07,44.93 620.98,55.46 618.60,61.34 C612.21,77.59 606.01,95.45 603.73,102.25 C603.29,103.63 602.60,105.74 602.37,106.48" fill="none" stroke="rgb(255, 0, 0)" stroke-width="2.00" stroke-opacity="1.00" stroke-linejoin="round"/>
<path d="M657.34,73.53 C657.51,73.85 657.59,74.18 657.59,74.53 C657.57,75.44 652.68,93.86 651.74,100.80 C651.27,104.26 651.15,104.99 650.97,105.41 C651.84,102.97 660.32,93.46 666.86,87.00 C672.58,81.58 689.73,65.82 691.58,64.73 C691.58,64.73 683.62,90.72 683.62,90.72 C692.05,74.63 721.44,42.81 721.31,43.38 C721.31,43.38 712.80,64.29 712.80,64.29 C713.22,63.73 716.66,58.62 719.52,55.23 C723.33,50.75 733.07,41.46 738.45,37.35 C741.02,35.40 744.19,33.36 744.37,33.42" fill="none" stroke="rgb(255, 0, 0)" stroke-width="2.00" stroke-opacity="1.00" stroke-linejoin="round"/>
<path d="M758.86,38.05 C758.31,39.02 756.95,41.44 756.88,41.57 C754.64,45.73 747.60,66.07 747.72,66.01 C749.18,64.57 770.16,41.34 772.81,38.52 C774.26,36.98 775.14,36.15 776.83,34.71" fill="none" stroke="rgb(255, 0, 0)" stroke-width="2.00" stroke-opacity="1.00" stroke-linejoin="round"/>
<path d="M789.28,40.29 C789.23,40.70 789.17,40.99 789.12,41.16 C788.67,42.60 774.60,69.31 774.63,69.29 C782.28,59.15 796.90,42.40 800.42,38.97 C803.15,36.33 807.38,34.30 808.29,33.87 C809.53,33.29 810.39,33.03 810.83,33.02 C811.23,33.96 811.28,34.62 810.76,35.76 C806.97,44.12 795.52,61.97 795.42,62.31 C796.31,61.51 807.70,50.79 813.34,45.76 C817.39,42.29 829.84,32.50 832.73,30.80 C834.22,29.92 835.66,29.29 835.92,29.32" fill="none" stroke="rgb(255, 0, 0)" stroke-width="2.00" stroke-opacity="1.00" stroke-linejoin="round"/>
<path d="M956.41,510.22 C956.50,510.06 956.59,509.76 956.52,509.58 C956.36,509.13 954.62,507.53 953.73,507.28 C952.56,507.00 949.90,507.97 948.80,509.08 C947.85,510.07 946.86,512.60 946.89,513.75 C946.95,514.89 947.68,516.57 948.45,517.27 C949.18,517.90 951.26,518.97 952.25,519.08 C953.58,519.20 956.12,518.26 957.02,517.26 C957.35,516.87 957.56,516.46 957.64,516.15 C957.64,516.15 957.54,515.92 957.54,515.92" fill="none" stroke="rgb(255, 0, 0)" stroke-width="2.00" stroke-opacity="1.00" stroke-linejoin="round"/>
<path d="M877.86,542.29 C877.96,542.26 878.19,542.48 879.16,543.52 C881.02,545.47 888.51,549.39 894.05,551.48 C895.00,551.82 896.25,552.27 896.17,552.26" fill="none" stroke="rgb(255, 0, 0)" stroke-width="2.00" stroke-opacity="1.00" stroke-linejoin="round"/>
</g>
<g stroke-linecap="round" transform="translate(-4.00, -46.00)" id="Black">
<path d="M558.08,301.76 Q551.31,228.57 574.38,226.18" fill="none" stroke="rgb(0, 0, 0)" stroke-width="2.00" stroke-opacity="1.00" stroke-linejoin="round"/>
<path d="M574.37,226.14 Q588.13,220.83 625.56,262.36" fill="none" stroke="rgb(0, 0, 0)" stroke-width="2.00" stroke-opacity="1.00" stroke-linejoin="round"/>
<path d="M624.82,262.01 C624.82,262.01 625.00,262.01 625.00,262.01 C625.00,262.01 625.30,254.36 625.30,254.36 C626.41,254.18 627.66,254.94 629.63,256.95 C631.89,259.23 637.20,264.61 638.39,265.91 C640.12,267.81 644.50,273.41 645.37,275.20 C645.63,275.74 645.75,276.45 645.76,276.73" fill="none" stroke="rgb(0, 0, 0)" stroke-width="2.00" stroke-opacity="1.00" stroke-linejoin="round"/>
<path d="M642.52,271.29 C642.52,271.29 643.17,271.41 643.17,271.41 C643.17,271.41 650.04,281.82 650.04,281.82 C650.19,281.30 650.70,266.71 650.93,259.29 C651.40,249.18 652.34,244.11 652.74,242.53 C652.74,242.53 657.32,262.55 657.32,262.55 C657.29,258.04 657.52,254.46 658.09,251.41 C658.77,248.05 659.55,245.64 660.25,243.89" fill="none" stroke="rgb(0, 0, 0)" stroke-width="2.00" stroke-opacity="1.00" stroke-linejoin="round"/>
<path d="M658.89,248.60 Q665.41,219.38 677.48,206.58" fill="none" stroke="rgb(0, 0, 0)" stroke-width="2.00" stroke-opacity="1.00" stroke-linejoin="round"/>
<path d="M676.74,206.19 C676.97,209.74 677.35,216.27 677.35,219.09 C677.31,221.52 677.26,224.01 677.26,224.00 C678.15,221.05 685.97,207.86 686.42,207.13 C687.10,206.04 687.99,204.74 688.17,204.52" fill="none" stroke="rgb(0, 0, 0)" stroke-width="2.00" stroke-opacity="1.00" stroke-linejoin="round"/>
<path d="M687.14,204.65 Q737.13,139.69 786.87,117.48" fill="none" stroke="rgb(0, 0, 0)" stroke-width="2.00" stroke-opacity="1.00" stroke-linejoin="round"/>
<path d="M787.16,116.66 Q855.66,84.12 917.64,79.78" fill="none" stroke="rgb(0, 0, 0)" stroke-width="2.00" stroke-opacity="1.00" stroke-linejoin="round"/>
<path d="M918.28,79.16 C918.28,79.16 918.48,79.10 918.48,79.10 C918.48,79.10 913.05,88.76 913.05,88.76 C913.89,88.59 926.20,84.74 931.81,84.06 C940.84,82.96 943.62,82.41 944.09,82.75 C944.32,83.50 943.84,87.82 943.81,88.96 C943.78,91.16 944.80,98.63 944.81,98.90 C944.81,98.90 955.46,94.01 955.46,94.01 C955.54,94.19 954.61,100.25 954.75,102.25 C954.90,104.33 955.37,106.72 955.73,107.64 C957.02,107.85 963.02,104.55 964.13,104.27 C965.23,104.02 966.69,104.96 966.89,105.91 C966.93,106.13 967.69,111.66 968.54,114.11 C969.81,117.63 970.14,118.89 970.07,119.01" fill="none" stroke="rgb(0, 0, 0)" stroke-width="2.00" stroke-opacity="1.00" stroke-linejoin="round"/>
<path d="M970.34,107.78 C970.34,108.53 970.34,110.61 970.34,111.95 C970.34,122.03 970.30,122.45 970.18,122.79 C970.18,122.79 967.97,109.79 967.97,109.79 C967.97,109.79 968.94,117.27 968.94,117.27 C968.94,117.27 968.12,112.40 968.12,112.40 C968.12,112.40 966.22,105.55 966.22,105.55 C966.22,105.55 965.75,113.64 965.75,113.64 C965.75,113.64 963.24,105.48 963.24,105.48 C963.24,105.48 960.82,108.58 960.82,108.58 C960.82,108.58 963.43,105.58 963.43,105.58 C963.43,105.58 956.39,109.15 956.39,109.15 C956.39,109.15 961.27,105.16 961.27,105.16" fill="none" stroke="rgb(255, 255, 255)" stroke-width="6.00" stroke-opacity="1.00" stroke-linejoin="round"/>
<path d="M966.12,103.26 C966.12,103.26 964.70,106.81 964.70,106.81 C964.70,106.81 964.52,102.92 964.52,102.92 C964.38,103.02 963.53,104.00 963.24,104.46 C963.13,104.62 963.07,104.80 963.04,104.99" fill="none" stroke="rgb(255, 255, 255)" stroke-width="6.00" stroke-opacity="1.00" stroke-linejoin="round"/>
<path d="M954.66,106.08 C954.66,106.08 954.74,105.85 954.74,105.85 C955.17,106.39 955.84,107.09 956.30,107.41 C956.75,107.71 962.03,106.76 963.57,106.63 C967.13,106.33 968.54,106.86 968.97,107.59 C969.46,108.53 970.28,114.53 970.60,115.68 C970.94,116.95 972.58,120.62 972.86,121.38 C972.86,121.38 980.96,115.38 980.96,115.38 C980.96,115.38 984.05,137.97 984.05,137.97 C984.05,137.97 988.32,134.08 988.32,134.08 C988.83,134.47 990.49,145.51 991.76,150.38 C992.89,154.69 992.96,154.92 993.03,155.04 C993.03,155.04 997.70,147.58 997.70,147.58 C997.99,147.68 998.13,151.81 998.35,155.75 C998.42,156.90 998.55,158.89 998.61,159.75 C998.62,159.96 998.64,160.30 998.65,160.74" fill="none" stroke="rgb(0, 0, 0)" stroke-width="2.00" stroke-opacity="1.00" stroke-linejoin="round"/>
<path d="M998.79,158.12 Q1015.85,228.80 1000.88,257.70" fill="none" stroke="rgb(0, 0, 0)" stroke-width="2.00" stroke-opacity="1.00" stroke-linejoin="round"/>
<path d="M960.95,41.04 Q951.04,62.29 932.28,83.88" fill="none" stroke="rgb(0, 0, 0)" stroke-width="2.00" stroke-opacity="1.00" stroke-linejoin="round"/>
<path d="M999.93,256.78 C1000.08,256.72 1000.25,256.67 1000.42,256.61 C1001.45,256.25 1005.42,253.60 1008.32,251.41 C1010.18,249.98 1012.32,248.14 1013.37,247.04 C1014.78,245.56 1015.32,244.47 1015.41,244.15" fill="none" stroke="rgb(0, 0, 0)" stroke-width="2.00" stroke-opacity="1.00" stroke-linejoin="round"/>
<path d="M1014.93,244.12 Q1002.70,285.52 994.24,292.10" fill="none" stroke="rgb(0, 0, 0)" stroke-width="2.00" stroke-opacity="1.00" stroke-linejoin="round"/>
<path d="M994.43,292.29 Q1017.19,281.94 1030.17,279.68" fill="none" stroke="rgb(0, 0, 0)" stroke-width="2.00" stroke-opacity="1.00" stroke-linejoin="round"/>
<path d="M1010.79,290.03 Q1027.73,280.62 1029.23,281.19" fill="none" stroke="rgb(0, 0, 0)" stroke-width="2.00" stroke-opacity="1.00" stroke-linejoin="round"/>
<path d="M1011.74,290.03 Q1047.67,291.35 1052.94,293.23" fill="none" stroke="rgb(0, 0, 0)" stroke-width="2.00" stroke-opacity="1.00" stroke-linejoin="round"/>
<path d="M1053.17,293.32 C1053.17,293.32 1053.41,293.32 1053.41,293.32 C1053.41,293.32 1043.52,296.21 1043.52,296.21 C1043.62,296.40 1056.54,297.86 1061.47,299.37 C1079.47,305.54 1080.21,306.02 1080.24,306.03 C1080.24,306.03 1070.59,308.87 1070.59,308.87 C1070.87,309.25 1076.23,311.63 1076.98,312.01 C1077.88,312.46 1078.78,312.94 1079.71,313.44 C1079.81,313.50 1080.11,313.66 1080.00,313.64" fill="none" stroke="rgb(0, 0, 0)" stroke-width="2.00" stroke-opacity="1.00" stroke-linejoin="round"/>
<path d="M1076.65,312.42 Q1107.13,325.97 1128.95,366.42" fill="none" stroke="rgb(0, 0, 0)" stroke-width="2.00" stroke-opacity="1.00" stroke-linejoin="round"/>
<path d="M1129.14,366.82 Q1149.25,405.68 1152.41,411.56" fill="none" stroke="rgb(0, 0, 0)" stroke-width="2.00" stroke-opacity="1.00" stroke-linejoin="round"/>
<path d="M1175.66,347.91 Q1157.67,361.76 1154.14,410.12" fill="none" stroke="rgb(0, 0, 0)" stroke-width="2.00" stroke-opacity="1.00" stroke-linejoin="round"/>
<path d="M1157.09,385.35 Q1161.21,351.74 1176.54,342.60" fill="none" stroke="rgb(0, 0, 0)" stroke-width="2.00" stroke-opacity="1.00" stroke-linejoin="round"/>
<path d="M1174.40,389.59 Q1173.99,301.13 1211.26,278.61" fill="none" stroke="rgb(0, 0, 0)" stroke-width="2.00" stroke-opacity="1.00" stroke-linejoin="round"/>
<path d="M1211.98,279.04 Q1241.74,266.29 1266.45,326.60" fill="none" stroke="rgb(0, 0, 0)" stroke-width="2.00" stroke-opacity="1.00" stroke-linejoin="round"/>
<path d="M1266.72,327.14 Q1290.90,385.33 1286.38,417.48" fill="none" stroke="rgb(0, 0, 0)" stroke-width="2.00" stroke-opacity="1.00" stroke-linejoin="round"/>
<path d="M1195.51,361.41 Q1211.72,306.94 1218.36,306.41" fill="none" stroke="rgb(0, 0, 0)" stroke-width="2.00" stroke-opacity="1.00" stroke-linejoin="round"/>
<path d="M1216.98,306.31 Q1233.21,292.53 1254.70,333.05" fill="none" stroke="rgb(0, 0, 0)" stroke-width="2.00" stroke-opacity="1.00" stroke-linejoin="round"/>
<path d="M1195.75,362.50 Q1190.00,389.50 1195.00,394.75" fill="none" stroke="rgb(0, 0, 0)" stroke-width="2.00" stroke-opacity="1.00" stroke-linejoin="round"/>
<path d="M1194.00,394.00 Q1199.25,403.50 1218.50,412.50" fill="none" stroke="rgb(0, 0, 0)" stroke-width="2.00" stroke-opacity="1.00" stroke-linejoin="round"/>
<path d="M1201.25,348.50 Q1216.75,364.25 1250.00,325.00" fill="none" stroke="rgb(0, 0, 0)" stroke-width="2.00" stroke-opacity="1.00" stroke-linejoin="round"/>
<path d="M1195.35,392.34 Q1220.18,367.14 1236.30,373.44" fill="none" stroke="rgb(0, 0, 0)" stroke-width="2.00" stroke-opacity="1.00" stroke-linejoin="round"/>
<path d="M1235.00,372.88 Q1246.86,371.96 1261.13,398.46" fill="none" stroke="rgb(0, 0, 0)" stroke-width="2.00" stroke-opacity="1.00" stroke-linejoin="round"/>
<path d="M1201.27,423.76 C1201.50,423.70 1202.09,423.59 1202.58,423.80 C1202.76,423.88 1209.38,426.90 1211.89,427.54 C1213.06,427.83 1222.85,429.20 1223.89,429.36 C1226.09,429.74 1228.74,432.16 1229.52,434.14 C1231.64,439.72 1231.34,446.82 1231.05,448.76 C1230.97,449.24 1230.83,449.93 1230.61,450.83" fill="none" stroke="rgb(0, 0, 0)" stroke-width="2.00" stroke-opacity="1.00" stroke-linejoin="round"/>
<path d="M1216.94,479.18 Q1229.09,454.62 1230.64,451.52" fill="none" stroke="rgb(0, 0, 0)" stroke-width="2.00" stroke-opacity="1.00" stroke-linejoin="round"/>
<path d="M1217.05,479.00 C1217.05,479.00 1217.05,478.80 1217.05,478.80 C1216.97,487.44 1218.17,495.41 1218.91,499.37 C1219.51,502.44 1219.90,506.06 1219.85,505.95" fill="none" stroke="rgb(0, 0, 0)" stroke-width="2.00" stroke-opacity="1.00" stroke-linejoin="round"/>
<path d="M1221.24,538.45 C1222.47,531.36 1224.97,516.42 1225.51,515.58 C1225.67,515.33 1228.12,512.68 1228.85,511.79 C1229.13,511.46 1229.35,511.03 1229.43,510.91" fill="none" stroke="rgb(0, 0, 0)" stroke-width="2.00" stroke-opacity="1.00" stroke-linejoin="round"/>
<path d="M1228.57,511.74 Q1260.62,480.98 1261.66,423.35" fill="none" stroke="rgb(0, 0, 0)" stroke-width="2.00" stroke-opacity="1.00" stroke-linejoin="round"/>
<path d="M1260.89,380.05 Q1262.43,422.33 1260.55,425.74" fill="none" stroke="rgb(0, 0, 0)" stroke-width="2.00" stroke-opacity="1.00" stroke-linejoin="round"/>
<path d="M1223.01,552.63 Q1220.74,580.67 1226.05,607.95" fill="none" stroke="rgb(0, 0, 0)" stroke-width="2.00" stroke-opacity="1.00" stroke-linejoin="round"/>
<path d="M1221.68,563.62 C1221.75,563.63 1221.89,563.53 1222.12,563.31 C1224.20,561.15 1228.76,556.60 1230.96,555.18 C1233.67,553.44 1238.03,552.33 1241.40,550.90 C1245.04,549.35 1248.76,546.97 1250.74,544.75 C1252.60,542.62 1257.45,535.55 1259.46,532.31 C1260.61,530.43 1262.20,527.59 1263.06,525.88 C1263.24,525.53 1263.33,525.32 1263.33,525.24" fill="none" stroke="rgb(0, 0, 0)" stroke-width="2.00" stroke-opacity="1.00" stroke-linejoin="round"/>
<path d="M1262.78,527.17 Q1283.01,464.63 1286.96,412.86" fill="none" stroke="rgb(0, 0, 0)" stroke-width="2.00" stroke-opacity="1.00" stroke-linejoin="round"/>
<path d="M1161.75,36.18 Q1175.26,204.38 1133.52,341.27" fill="none" stroke="rgb(0, 0, 0)" stroke-width="2.00" stroke-opacity="1.00" stroke-linejoin="round"/>
<path d="M1005.83,247.96 Q1046.35,137.47 1059.85,30.04" fill="none" stroke="rgb(0, 0, 0)" stroke-width="2.00" stroke-opacity="1.00" stroke-linejoin="round"/>
<path d="M1080.72,36.79 Q1069.67,152.81 1022.41,248.58" fill="none" stroke="rgb(0, 0, 0)" stroke-width="2.00" stroke-opacity="1.00" stroke-linejoin="round"/>
<path d="M1223.14,35.56 Q1240.33,137.47 1232.35,270.68" fill="none" stroke="rgb(0, 0, 0)" stroke-width="2.00" stroke-opacity="1.00" stroke-linejoin="round"/>
<path d="M1234.80,38.02 Q1299.26,189.03 1274.09,349.25" fill="none" stroke="rgb(0, 0, 0)" stroke-width="2.00" stroke-opacity="1.00" stroke-linejoin="round"/>
<path d="M1240.12,43.39 Q1285.14,96.89 1312.22,156.27" fill="none" stroke="rgb(0, 0, 0)" stroke-width="2.00" stroke-opacity="1.00" stroke-linejoin="round"/>
<path d="M1289.05,38.82 Q1303.41,92.00 1311.56,155.29" fill="none" stroke="rgb(0, 0, 0)" stroke-width="2.00" stroke-opacity="1.00" stroke-linejoin="round"/>
<path d="M1298.19,74.06 Q1352.34,123.97 1430.97,128.86" fill="none" stroke="rgb(0, 0, 0)" stroke-width="2.00" stroke-opacity="1.00" stroke-linejoin="round"/>
<path d="M1330.81,41.11 Q1361.15,96.57 1416.29,128.21" fill="none" stroke="rgb(0, 0, 0)" stroke-width="2.00" stroke-opacity="1.00" stroke-linejoin="round"/>
<path d="M620.32,219.11 Q619.71,132.56 682.33,18.99" fill="none" stroke="rgb(0, 0, 0)" stroke-width="2.00" stroke-opacity="1.00" stroke-linejoin="round"/>
<path d="M620.94,229.55 Q607.43,111.07 655.32,27.58" fill="none" stroke="rgb(0, 0, 0)" stroke-width="2.00" stroke-opacity="1.00" stroke-linejoin="round"/>
<path d="M665.02,200.49 Q712.85,81.87 760.20,24.48" fill="none" stroke="rgb(0, 0, 0)" stroke-width="2.00" stroke-opacity="1.00" stroke-linejoin="round"/>
<path d="M680.32,193.32 Q753.50,69.44 796.55,23.52" fill="none" stroke="rgb(0, 0, 0)" stroke-width="2.00" stroke-opacity="1.00" stroke-linejoin="round"/>
<path d="M602.36,37.87 Q528.22,142.14 546.88,250.71" fill="none" stroke="rgb(0, 0, 0)" stroke-width="2.00" stroke-opacity="1.00" stroke-linejoin="round"/>
<path d="M555.23,152.58 Q567.33,203.07 584.46,225.81" fill="none" stroke="rgb(0, 0, 0)" stroke-width="2.00" stroke-opacity="1.00" stroke-linejoin="round"/>
<path d="M546.96,250.90 Q550.51,279.84 557.59,298.14" fill="none" stroke="rgb(0, 0, 0)" stroke-width="2.00" stroke-opacity="1.00" stroke-linejoin="round"/>
<path d="M557.93,301.81 Q561.82,379.62 603.16,491.96" fill="none" stroke="rgb(0, 0, 0)" stroke-width="2.00" stroke-opacity="1.00" stroke-linejoin="round"/>
<path d="M603.63,492.60 Q609.15,523.96 637.89,550.39" fill="none" stroke="rgb(0, 0, 0)" stroke-width="2.00" stroke-opacity="1.00" stroke-linejoin="round"/>
<path d="M637.31,549.81 Q684.06,613.11 682.32,615.14" fill="none" stroke="rgb(0, 0, 0)" stroke-width="2.00" stroke-opacity="1.00" stroke-linejoin="round"/>
<path d="M682.61,613.98 Q696.55,652.89 762.18,727.52" fill="none" stroke="rgb(0, 0, 0)" stroke-width="2.00" stroke-opacity="1.00" stroke-linejoin="round"/>
<path d="M762.47,728.39 Q835.06,815.79 837.67,818.70" fill="none" stroke="rgb(0, 0, 0)" stroke-width="2.00" stroke-opacity="1.00" stroke-linejoin="round"/>
<path d="M646.98,537.97 Q705.85,554.82 725.54,555.48" fill="none" stroke="rgb(0, 0, 0)" stroke-width="2.00" stroke-opacity="1.00" stroke-linejoin="round"/>
<path d="M658.58,541.69 Q712.63,565.33 726.64,561.39" fill="none" stroke="rgb(0, 0, 0)" stroke-width="2.00" stroke-opacity="1.00" stroke-linejoin="round"/>
<path d="M677.69,561.50 C677.78,561.50 677.93,561.46 678.16,561.39 C680.45,560.67 689.27,556.27 691.73,555.38 C692.10,555.25 692.37,555.16 692.55,555.11 C692.55,555.11 692.57,555.06 692.57,555.06" fill="none" stroke="rgb(0, 0, 0)" stroke-width="2.00" stroke-opacity="1.00" stroke-linejoin="round"/>
<path d="M719.20,536.69 C719.20,536.69 719.27,536.63 719.27,536.63 C719.74,537.82 721.17,542.26 722.52,545.48 C724.56,550.34 726.23,555.14 726.29,556.82 C726.30,557.25 726.29,558.32 726.26,560.05" fill="none" stroke="rgb(0, 0, 0)" stroke-width="2.00" stroke-opacity="1.00" stroke-linejoin="round"/>
<path d="M725.70,557.68 C725.77,557.72 725.81,557.83 725.83,557.99 C726.22,560.58 727.62,563.80 730.11,566.45 C731.11,567.48 734.07,569.90 738.66,573.49 C741.53,575.74 744.90,578.65 746.31,580.48 C746.51,580.75 746.69,581.06 746.85,581.42" fill="none" stroke="rgb(0, 0, 0)" stroke-width="2.00" stroke-opacity="1.00" stroke-linejoin="round"/>
<path d="M746.77,581.08 Q781.79,653.74 784.85,667.75" fill="none" stroke="rgb(0, 0, 0)" stroke-width="2.00" stroke-opacity="1.00" stroke-linejoin="round"/>
<path d="M785.23,668.09 Q799.11,708.54 799.40,710.61" fill="none" stroke="rgb(0, 0, 0)" stroke-width="2.00" stroke-opacity="1.00" stroke-linejoin="round"/>
<path d="M799.98,722.87 C799.98,722.87 800.22,722.93 800.22,722.93 C800.38,723.20 802.43,740.39 803.48,742.60 C804.21,744.02 809.14,746.90 811.65,747.95 C817.54,750.25 825.29,753.30 826.41,753.78 C827.56,754.29 828.72,754.79 829.87,755.30" fill="none" stroke="rgb(0, 0, 0)" stroke-width="2.00" stroke-opacity="1.00" stroke-linejoin="round"/>
<path d="M827.45,754.30 C827.81,754.23 828.09,754.21 828.28,754.22 C828.41,754.23 831.56,754.88 832.74,755.07 C833.17,755.14 833.83,755.23 834.74,755.34" fill="none" stroke="rgb(0, 0, 0)" stroke-width="2.00" stroke-opacity="1.00" stroke-linejoin="round"/>
<path d="M854.24,742.59 C854.49,742.53 857.56,740.09 858.85,739.22 C861.18,737.66 866.43,735.51 870.34,735.13 C872.24,734.97 876.14,735.41 877.11,735.76 C877.39,735.87 877.60,736.04 877.61,736.09" fill="none" stroke="rgb(0, 0, 0)" stroke-width="2.00" stroke-opacity="1.00" stroke-linejoin="round"/>
<path d="M845.15,755.08 C845.29,755.08 845.44,755.08 845.58,755.08 C846.68,755.11 849.34,756.42 851.11,757.81 C853.02,759.35 857.35,764.18 858.93,766.49 C860.44,768.73 861.92,772.00 862.17,772.76 C862.26,773.05 862.42,773.64 862.65,774.54" fill="none" stroke="rgb(0, 0, 0)" stroke-width="2.00" stroke-opacity="1.00" stroke-linejoin="round"/>
<path d="M848.09,800.68 C848.17,800.71 848.23,800.76 848.27,800.81 C848.67,801.58 846.90,807.79 846.79,808.89 C846.58,810.99 848.25,815.37 849.49,816.54 C850.05,817.03 856.03,821.70 858.64,823.69 C859.59,824.42 860.55,825.15 861.50,825.88" fill="none" stroke="rgb(0, 0, 0)" stroke-width="2.00" stroke-opacity="1.00" stroke-linejoin="round"/>
<path d="M866.34,815.79 C866.40,815.80 866.47,815.81 866.53,815.84 C867.75,816.23 870.31,816.72 874.24,816.96 C878.44,817.21 885.01,816.92 885.70,816.85" fill="none" stroke="rgb(0, 0, 0)" stroke-width="2.00" stroke-opacity="1.00" stroke-linejoin="round"/>
<path d="M836.89,819.11 Q882.27,878.16 884.64,889.64" fill="none" stroke="rgb(0, 0, 0)" stroke-width="2.00" stroke-opacity="1.00" stroke-linejoin="round"/>
<path d="M884.66,871.96 Q884.66,897.93 884.94,897.65" fill="none" stroke="rgb(0, 0, 0)" stroke-width="2.00" stroke-opacity="1.00" stroke-linejoin="round"/>
<path d="M682.75,584.75 Q713.25,583.00 734.50,570.75" fill="none" stroke="rgb(0, 0, 0)" stroke-width="2.00" stroke-opacity="1.00" stroke-linejoin="round"/>
<path d="M677.50,583.75 Q705.75,590.00 740.75,575.75" fill="none" stroke="rgb(0, 0, 0)" stroke-width="2.00" stroke-opacity="1.00" stroke-linejoin="round"/>
<path d="M693.67,586.15 C693.89,586.32 695.40,590.66 696.82,593.46 C697.51,594.81 700.62,599.46 702.41,601.84 C703.05,602.69 704.60,604.65 705.16,605.35" fill="none" stroke="rgb(0, 0, 0)" stroke-width="2.00" stroke-opacity="1.00" stroke-linejoin="round"/>
<path d="M753.49,595.97 C753.06,596.94 749.64,602.44 747.18,604.89 C744.67,607.37 741.31,609.15 739.88,609.43 C736.64,609.98 730.35,611.11 728.56,611.25 C727.79,611.30 724.95,611.32 724.57,611.33" fill="none" stroke="rgb(0, 0, 0)" stroke-width="2.00" stroke-opacity="1.00" stroke-linejoin="round"/>
<path d="M701.09,614.42 C701.33,614.65 701.51,614.85 701.63,615.03 C701.98,615.55 705.86,621.11 708.98,623.48 C710.22,624.40 712.26,625.72 713.12,626.20 C713.55,626.43 714.03,626.57 714.92,626.79" fill="none" stroke="rgb(0, 0, 0)" stroke-width="2.00" stroke-opacity="1.00" stroke-linejoin="round"/>
<path d="M760.53,630.28 C760.62,630.19 760.70,630.02 760.77,629.76 C761.58,626.56 763.44,621.29 763.59,619.53 C763.63,618.89 763.53,618.17 763.36,617.45" fill="none" stroke="rgb(0, 0, 0)" stroke-width="2.00" stroke-opacity="1.00" stroke-linejoin="round"/>
<path d="M714.08,585.43 C714.20,585.47 714.84,587.53 715.27,588.43 C715.75,589.40 718.40,592.49 720.74,594.28 C722.50,595.61 723.84,596.32 724.30,596.52" fill="none" stroke="rgb(0, 0, 0)" stroke-width="2.00" stroke-opacity="1.00" stroke-linejoin="round"/>
<path d="M723.42,595.85 C723.48,595.83 723.52,595.82 723.53,595.82 C723.74,595.81 726.72,597.05 728.94,597.38 C731.34,597.73 735.47,597.61 738.12,597.09 C739.94,596.71 746.91,591.54 748.05,589.58 C748.34,589.07 748.53,588.58 748.68,588.05" fill="none" stroke="rgb(0, 0, 0)" stroke-width="2.00" stroke-opacity="1.00" stroke-linejoin="round"/>
<path d="M728.26,581.30 C729.27,584.63 731.44,586.88 732.53,587.20 C733.42,587.42 734.87,587.35 735.41,587.01 C736.81,586.05 735.56,581.03 734.92,579.76 C734.40,578.75 733.99,578.45 733.78,578.39" fill="none" stroke="rgb(0, 0, 0)" stroke-width="2.00" stroke-opacity="1.00" stroke-linejoin="round"/>
<path d="M869.52,826.81 Q882.86,834.38 888.99,829.69" fill="none" stroke="rgb(0, 0, 0)" stroke-width="2.00" stroke-opacity="1.00" stroke-linejoin="round"/>
<path d="M888.63,830.05 Q950.99,821.04 972.98,827.17" fill="none" stroke="rgb(0, 0, 0)" stroke-width="2.00" stroke-opacity="1.00" stroke-linejoin="round"/>
<path d="M972.26,826.66 Q1001.28,836.49 1004.72,842.89" fill="none" stroke="rgb(0, 0, 0)" stroke-width="2.00" stroke-opacity="1.00" stroke-linejoin="round"/>
<path d="M876.86,829.86 Q889.89,848.79 894.57,865.02" fill="none" stroke="rgb(0, 0, 0)" stroke-width="2.00" stroke-opacity="1.00" stroke-linejoin="round"/>
<path d="M880.25,832.50 Q898.75,842.00 926.50,836.50" fill="none" stroke="rgb(0, 0, 0)" stroke-width="2.00" stroke-opacity="1.00" stroke-linejoin="round"/>
<path d="M926.00,836.25 Q968.00,827.00 967.50,826.25" fill="none" stroke="rgb(0, 0, 0)" stroke-width="2.00" stroke-opacity="1.00" stroke-linejoin="round"/>
<path d="M914.91,839.42 Q893.25,861.76 906.90,881.88" fill="none" stroke="rgb(0, 0, 0)" stroke-width="2.00" stroke-opacity="1.00" stroke-linejoin="round"/>
<path d="M924.16,838.68 C924.16,838.68 924.11,838.65 924.11,838.65 C923.40,839.05 920.54,848.50 920.28,853.92 C920.20,856.10 920.77,860.76 921.32,863.06 C921.77,864.94 922.61,867.40 923.51,869.62 C923.56,869.73 923.70,870.08 923.67,869.96" fill="none" stroke="rgb(0, 0, 0)" stroke-width="2.00" stroke-opacity="1.00" stroke-linejoin="round"/>
<path d="M912.52,864.32 Q929.57,878.30 975.44,858.35" fill="none" stroke="rgb(0, 0, 0)" stroke-width="2.00" stroke-opacity="1.00" stroke-linejoin="round"/>
<path d="M981.45,856.87 C981.16,856.90 979.76,857.47 978.01,858.29 C972.64,860.93 961.50,866.20 955.11,867.64 C952.74,868.17 951.79,868.42 950.07,868.98 C950.07,868.98 974.22,857.29 974.22,857.29 C972.89,858.83 969.23,861.47 967.32,862.44 C965.06,863.56 960.19,865.12 957.18,865.72 C957.18,865.72 970.76,857.27 970.76,857.27 C966.58,861.16 957.77,865.95 952.56,867.49 C949.66,868.34 947.54,868.65 947.09,868.69" fill="none" stroke="rgb(255, 255, 255)" stroke-width="6.00" stroke-opacity="1.00" stroke-linejoin="round"/>
<path d="M943.56,869.09 Q985.50,855.45 998.46,838.57" fill="none" stroke="rgb(0, 0, 0)" stroke-width="2.00" stroke-opacity="1.00" stroke-linejoin="round"/>
<path d="M936.57,883.25 Q990.28,868.92 1004.26,842.83" fill="none" stroke="rgb(0, 0, 0)" stroke-width="2.00" stroke-opacity="1.00" stroke-linejoin="round"/>
<path d="M899.22,878.98 Q910.99,889.04 937.25,882.90" fill="none" stroke="rgb(0, 0, 0)" stroke-width="2.00" stroke-opacity="1.00" stroke-linejoin="round"/>
<path d="M894.11,864.66 Q897.69,875.74 900.07,878.98" fill="none" stroke="rgb(0, 0, 0)" stroke-width="2.00" stroke-opacity="1.00" stroke-linejoin="round"/>
<path d="M885.52,896.90 C885.53,896.95 885.53,896.98 885.52,897.00 C885.47,897.48 887.36,901.84 889.84,904.27 C892.42,906.76 900.11,911.33 904.99,913.05 C909.17,914.57 916.73,917.20 924.90,918.37 C929.35,918.97 930.60,919.09 930.82,919.02" fill="none" stroke="rgb(0, 0, 0)" stroke-width="2.00" stroke-opacity="1.00" stroke-linejoin="round"/>
<path d="M930.76,918.78 Q956.38,914.34 964.00,907.56" fill="none" stroke="rgb(0, 0, 0)" stroke-width="2.00" stroke-opacity="1.00" stroke-linejoin="round"/>
<path d="M893.68,907.46 Q914.01,982.45 921.64,983.47" fill="none" stroke="rgb(0, 0, 0)" stroke-width="2.00" stroke-opacity="1.00" stroke-linejoin="round"/>
<path d="M921.13,983.72 Q966.12,1005.58 1034.25,977.62" fill="none" stroke="rgb(0, 0, 0)" stroke-width="2.00" stroke-opacity="1.00" stroke-linejoin="round"/>
<path d="M1033.56,977.58 Q1062.87,963.85 1126.66,870.45" fill="none" stroke="rgb(0, 0, 0)" stroke-width="2.00" stroke-opacity="1.00" stroke-linejoin="round"/>
<path d="M1053.52,962.69 Q1075.66,969.43 1099.41,1008.57" fill="none" stroke="rgb(0, 0, 0)" stroke-width="2.00" stroke-opacity="1.00" stroke-linejoin="round"/>
<path d="M1099.04,1009.49 C1099.12,1009.60 1099.19,1009.69 1099.26,1009.76 C1100.18,1010.81 1105.43,1019.61 1110.70,1025.37 C1116.05,1031.18 1124.86,1038.60 1129.56,1041.38 C1131.43,1042.48 1137.49,1045.62 1139.99,1046.90 C1146.34,1050.05 1155.09,1054.35 1157.48,1055.51" fill="none" stroke="rgb(0, 0, 0)" stroke-width="2.00" stroke-opacity="1.00" stroke-linejoin="round"/>
<path d="M1157.46,1056.37 Q1182.30,1063.04 1201.86,1101.92" fill="none" stroke="rgb(0, 0, 0)" stroke-width="2.00" stroke-opacity="1.00" stroke-linejoin="round"/>
<path d="M1099.52,1076.93 C1099.77,1077.06 1100.47,1077.70 1100.78,1077.93 C1103.29,1079.82 1113.23,1085.06 1121.50,1089.07 C1128.57,1092.43 1142.88,1099.31 1150.10,1102.83 C1160.45,1108.07 1161.72,1108.81 1163.82,1110.11" fill="none" stroke="rgb(0, 0, 0)" stroke-width="2.00" stroke-opacity="1.00" stroke-linejoin="round"/>
<path d="M1155.88,1106.23 C1156.42,1106.28 1157.41,1106.53 1158.24,1106.90 C1161.17,1108.21 1173.67,1117.04 1177.04,1120.46 C1178.73,1122.18 1182.42,1126.88 1183.92,1129.41 C1184.23,1129.93 1186.66,1134.46 1186.92,1135.03" fill="none" stroke="rgb(0, 0, 0)" stroke-width="2.00" stroke-opacity="1.00" stroke-linejoin="round"/>
<path d="M1098.53,1077.31 C1098.51,1077.14 1098.50,1077.03 1098.49,1076.98 C1098.40,1076.57 1098.03,1076.05 1096.30,1073.92 C1095.42,1072.84 1094.50,1071.59 1094.42,1071.34 C1094.41,1071.33 1094.35,1071.09 1094.22,1070.63" fill="none" stroke="rgb(0, 0, 0)" stroke-width="2.00" stroke-opacity="1.00" stroke-linejoin="round"/>
<path d="M1090.75,1061.25 Q1113.00,1130.00 1122.00,1135.50" fill="none" stroke="rgb(0, 0, 0)" stroke-width="2.00" stroke-opacity="1.00" stroke-linejoin="round"/>
<path d="M1076.34,978.52 Q1080.48,1026.33 1091.85,1061.74" fill="none" stroke="rgb(0, 0, 0)" stroke-width="2.00" stroke-opacity="1.00" stroke-linejoin="round"/>
<path d="M1036.40,977.56 Q1038.42,1084.81 1051.24,1169.13" fill="none" stroke="rgb(0, 0, 0)" stroke-width="2.00" stroke-opacity="1.00" stroke-linejoin="round"/>
<path d="M1125.86,871.80 Q1167.98,814.29 1219.01,737.34" fill="none" stroke="rgb(0, 0, 0)" stroke-width="2.00" stroke-opacity="1.00" stroke-linejoin="round"/>
<path d="M1225.74,606.68 Q1236.37,692.59 1232.53,703.52" fill="none" stroke="rgb(0, 0, 0)" stroke-width="2.00" stroke-opacity="1.00" stroke-linejoin="round"/>
<path d="M1218.87,736.94 Q1232.42,710.91 1233.26,702.44" fill="none" stroke="rgb(0, 0, 0)" stroke-width="2.00" stroke-opacity="1.00" stroke-linejoin="round"/>
<path d="M1263.92,693.78 Q1267.02,775.14 1246.09,975.83" fill="none" stroke="rgb(0, 0, 0)" stroke-width="2.00" stroke-opacity="1.00" stroke-linejoin="round"/>
<path d="M1246.00,975.12 Q1237.01,1095.62 1236.48,1113.59" fill="none" stroke="rgb(0, 0, 0)" stroke-width="2.00" stroke-opacity="1.00" stroke-linejoin="round"/>
<path d="M1261.55,1131.06 Q1338.95,1002.06 1424.46,816.31" fill="none" stroke="rgb(0, 0, 0)" stroke-width="2.00" stroke-opacity="1.00" stroke-linejoin="round"/>
<path d="M913.89,972.34 Q899.17,1138.56 907.40,1200.89" fill="none" stroke="rgb(0, 0, 0)" stroke-width="2.00" stroke-opacity="1.00" stroke-linejoin="round"/>
<path d="M800.00,1092.50 Q852.50,990.00 883.00,948.00" fill="none" stroke="rgb(0, 0, 0)" stroke-width="2.00" stroke-opacity="1.00" stroke-linejoin="round"/>
<path d="M646.00,950.00 Q770.50,904.00 867.50,860.50" fill="none" stroke="rgb(0, 0, 0)" stroke-width="2.00" stroke-opacity="1.00" stroke-linejoin="round"/>
<path d="M373.74,1128.22 Q460.33,1030.35 528.40,998.13" fill="none" stroke="rgb(0, 0, 0)" stroke-width="2.00" stroke-opacity="1.00" stroke-linejoin="round"/>
<path d="M529.58,996.96 Q582.53,973.10 645.93,949.97" fill="none" stroke="rgb(0, 0, 0)" stroke-width="2.00" stroke-opacity="1.00" stroke-linejoin="round"/>
<path d="M516.17,1128.03 Q601.70,1021.71 644.30,984.14" fill="none" stroke="rgb(0, 0, 0)" stroke-width="2.00" stroke-opacity="1.00" stroke-linejoin="round"/>
<path d="M478.27,1127.03 Q524.22,1040.49 528.25,1034.45" fill="none" stroke="rgb(0, 0, 0)" stroke-width="2.00" stroke-opacity="1.00" stroke-linejoin="round"/>
<path d="M1278.55,801.29 Q1338.32,745.14 1369.33,661.63" fill="none" stroke="rgb(0, 0, 0)" stroke-width="2.00" stroke-opacity="1.00" stroke-linejoin="round"/>
<path d="M1287.00,791.25 Q1312.50,751.25 1323.50,668.75" fill="none" stroke="rgb(0, 0, 0)" stroke-width="2.00" stroke-opacity="1.00" stroke-linejoin="round"/>
<path d="M1312.50,463.50 Q1335.50,553.00 1323.50,669.50" fill="none" stroke="rgb(0, 0, 0)" stroke-width="2.00" stroke-opacity="1.00" stroke-linejoin="round"/>
<path d="M1273.00,497.50 Q1292.00,551.50 1326.00,608.00" fill="none" stroke="rgb(0, 0, 0)" stroke-width="2.00" stroke-opacity="1.00" stroke-linejoin="round"/>
<path d="M1382.52,583.90 Q1381.06,634.11 1369.31,661.71" fill="none" stroke="rgb(0, 0, 0)" stroke-width="2.00" stroke-opacity="1.00" stroke-linejoin="round"/>
<path d="M1362.37,680.75 Q1372.20,781.49 1450.01,833.50" fill="none" stroke="rgb(0, 0, 0)" stroke-width="2.00" stroke-opacity="1.00" stroke-linejoin="round"/>
<path d="M1426.67,662.32 Q1405.78,784.36 1452.06,835.96" fill="none" stroke="rgb(0, 0, 0)" stroke-width="2.00" stroke-opacity="1.00" stroke-linejoin="round"/>
<path d="M1459.84,595.98 Q1456.56,678.30 1424.62,775.35" fill="none" stroke="rgb(0, 0, 0)" stroke-width="2.00" stroke-opacity="1.00" stroke-linejoin="round"/>
<path d="M1473.35,618.10 Q1484.00,677.89 1431.58,801.97" fill="none" stroke="rgb(0, 0, 0)" stroke-width="2.00" stroke-opacity="1.00" stroke-linejoin="round"/>
<path d="M1460.02,613.04 Q1460.21,619.67 1475.32,641.24" fill="none" stroke="rgb(0, 0, 0)" stroke-width="2.00" stroke-opacity="1.00" stroke-linejoin="round"/>
<path d="M1424.50,444.00 Q1461.00,527.50 1459.00,596.50" fill="none" stroke="rgb(0, 0, 0)" stroke-width="2.00" stroke-opacity="1.00" stroke-linejoin="round"/>
<path d="M1459.69,601.85 Q1524.53,647.97 1630.99,626.47" fill="none" stroke="rgb(0, 0, 0)" stroke-width="2.00" stroke-opacity="1.00" stroke-linejoin="round"/>
<path d="M1512.74,545.33 Q1556.09,619.19 1635.50,625.43" fill="none" stroke="rgb(0, 0, 0)" stroke-width="2.00" stroke-opacity="1.00" stroke-linejoin="round"/>
<path d="M1500.95,546.02 Q1588.34,527.99 1623.36,432.98" fill="none" stroke="rgb(0, 0, 0)" stroke-width="2.00" stroke-opacity="1.00" stroke-linejoin="round"/>
<path d="M1449.98,455.17 Q1552.27,492.97 1627.52,422.93" fill="none" stroke="rgb(0, 0, 0)" stroke-width="2.00" stroke-opacity="1.00" stroke-linejoin="round"/>
<path d="M1623.89,433.43 Q1627.68,419.98 1628.89,420.32" fill="none" stroke="rgb(0, 0, 0)" stroke-width="2.00" stroke-opacity="1.00" stroke-linejoin="round"/>
<path d="M1422.17,408.71 Q1462.56,451.49 1506.93,466.91" fill="none" stroke="rgb(0, 0, 0)" stroke-width="2.00" stroke-opacity="1.00" stroke-linejoin="round"/>
<path d="M1511.28,544.60 C1511.28,544.60 1511.41,544.51 1511.41,544.51 C1511.41,544.51 1512.34,545.03 1512.34,545.03 C1512.39,545.02 1512.45,544.76 1512.50,544.35 C1512.52,544.19 1512.54,543.90 1512.54,543.91" fill="none" stroke="rgb(0, 0, 0)" stroke-width="2.00" stroke-opacity="1.00" stroke-linejoin="round"/>
<path d="M1439.19,422.71 Q1537.85,429.46 1603.03,373.97" fill="none" stroke="rgb(0, 0, 0)" stroke-width="2.00" stroke-opacity="1.00" stroke-linejoin="round"/>
<path d="M1352.00,292.50 Q1415.50,398.00 1548.50,388.50" fill="none" stroke="rgb(0, 0, 0)" stroke-width="2.00" stroke-opacity="1.00" stroke-linejoin="round"/>
<path d="M1549.06,387.86 Q1596.53,382.45 1610.95,366.83" fill="none" stroke="rgb(0, 0, 0)" stroke-width="2.00" stroke-opacity="1.00" stroke-linejoin="round"/>
<path d="M1360.71,304.08 Q1460.13,320.66 1517.60,220.88" fill="none" stroke="rgb(0, 0, 0)" stroke-width="2.00" stroke-opacity="1.00" stroke-linejoin="round"/>
<path d="M1302.53,220.17 Q1347.66,289.63 1430.52,275.17" fill="none" stroke="rgb(0, 0, 0)" stroke-width="2.00" stroke-opacity="1.00" stroke-linejoin="round"/>
<path d="M1431.11,274.51 Q1489.78,257.28 1515.42,221.83" fill="none" stroke="rgb(0, 0, 0)" stroke-width="2.00" stroke-opacity="1.00" stroke-linejoin="round"/>
<path d="M1276.03,176.44 Q1285.81,196.28 1302.57,221.13" fill="none" stroke="rgb(0, 0, 0)" stroke-width="2.00" stroke-opacity="1.00" stroke-linejoin="round"/>
<path d="M923.81,323.61 C923.81,323.60 923.81,323.63 923.81,323.63 C923.81,324.32 923.80,325.93 923.80,326.85 C923.86,333.23 926.64,346.77 928.39,352.42 C929.36,355.52 931.91,362.68 933.16,366.14 C933.83,367.99 934.52,370.05 935.00,371.48" fill="none" stroke="rgb(0, 0, 0)" stroke-width="2.00" stroke-opacity="1.00" stroke-linejoin="round"/>
<path d="M746.99,524.24 C746.98,524.23 746.99,524.24 747.00,524.25 C747.66,525.41 749.72,528.84 752.47,531.11 C753.74,532.14 758.37,534.90 760.92,536.15 C764.25,537.75 771.30,540.23 772.32,540.20" fill="none" stroke="rgb(0, 0, 0)" stroke-width="2.00" stroke-opacity="1.00" stroke-linejoin="round"/>
<path d="M757.21,523.39 C757.41,523.35 757.56,523.31 757.99,523.45 C761.41,524.52 767.39,525.07 770.98,524.62 C773.84,524.25 775.49,523.57 775.98,522.72" fill="none" stroke="rgb(0, 0, 0)" stroke-width="2.00" stroke-opacity="1.00" stroke-linejoin="round"/>
<path d="M775.43,523.84 Q809.08,507.02 870.36,459.35" fill="none" stroke="rgb(0, 0, 0)" stroke-width="2.00" stroke-opacity="1.00" stroke-linejoin="round"/>
<path d="M760.81,523.44 Q805.87,496.60 883.17,449.74" fill="none" stroke="rgb(0, 0, 0)" stroke-width="2.00" stroke-opacity="1.00" stroke-linejoin="round"/>
<path d="M869.45,460.53 Q877.38,453.78 878.16,453.90" fill="none" stroke="rgb(0, 0, 0)" stroke-width="2.00" stroke-opacity="1.00" stroke-linejoin="round"/>
<path d="M844.78,484.27 C844.74,484.24 844.90,484.22 845.27,484.20 C849.26,484.01 854.48,483.49 857.95,483.16 C865.25,482.51 876.00,481.57 877.68,481.09" fill="none" stroke="rgb(0, 0, 0)" stroke-width="2.00" stroke-opacity="1.00" stroke-linejoin="round"/>
<path d="M802.34,515.12 C802.39,515.22 802.27,515.87 801.60,519.01 C801.00,522.04 799.93,527.71 799.41,531.82 C798.95,535.83 798.12,543.08 798.12,544.47" fill="none" stroke="rgb(0, 0, 0)" stroke-width="2.00" stroke-opacity="1.00" stroke-linejoin="round"/>
<path d="M837.07,509.85 C837.07,509.85 837.42,509.89 837.42,509.89 C837.85,510.19 836.88,521.66 836.72,525.33 C836.71,525.72 836.70,525.97 836.71,526.11" fill="none" stroke="rgb(0, 0, 0)" stroke-width="2.00" stroke-opacity="1.00" stroke-linejoin="round"/>
<path d="M836.89,524.96 C837.04,524.76 837.14,524.59 837.20,524.44 C839.50,518.97 842.85,514.15 844.37,512.65 C845.31,511.75 846.71,511.10 846.73,511.11" fill="none" stroke="rgb(0, 0, 0)" stroke-width="2.00" stroke-opacity="1.00" stroke-linejoin="round"/>
<path d="M845.45,511.81 C845.48,511.79 845.53,511.79 845.61,511.78 C846.58,511.72 852.84,511.04 855.80,511.12 C856.95,511.16 858.99,511.43 859.90,511.62 C860.13,511.67 860.37,511.74 860.64,511.82 C860.64,511.83 860.66,511.83 860.65,511.83" fill="none" stroke="rgb(0, 0, 0)" stroke-width="2.00" stroke-opacity="1.00" stroke-linejoin="round"/>
<path d="M838.24,508.35 Q941.14,500.53 941.30,500.69" fill="none" stroke="rgb(0, 0, 0)" stroke-width="2.00" stroke-opacity="1.00" stroke-linejoin="round"/>
<path d="M942.10,500.85 Q978.64,500.85 978.32,501.81" fill="none" stroke="rgb(0, 0, 0)" stroke-width="2.00" stroke-opacity="1.00" stroke-linejoin="round"/>
<path d="M966.35,502.13 Q972.89,505.80 980.87,513.46" fill="none" stroke="rgb(0, 0, 0)" stroke-width="2.00" stroke-opacity="1.00" stroke-linejoin="round"/>
<path d="M860.47,511.39 Q872.96,529.92 863.29,553.28" fill="none" stroke="rgb(0, 0, 0)" stroke-width="2.00" stroke-opacity="1.00" stroke-linejoin="round"/>
<path d="M864.45,549.50 C864.45,549.50 864.48,549.60 864.48,549.60 C864.65,549.50 867.81,545.23 868.82,543.78 C871.57,539.83 873.47,536.50 873.94,535.37 C874.05,535.10 874.09,534.91 874.04,534.78" fill="none" stroke="rgb(0, 0, 0)" stroke-width="2.00" stroke-opacity="1.00" stroke-linejoin="round"/>
<path d="M873.44,536.02 C873.53,535.97 873.59,535.83 873.64,535.60 C873.87,534.46 874.05,532.36 874.09,529.98 C874.22,523.85 874.39,519.38 874.59,517.66 C874.81,515.79 875.06,514.22 875.25,513.58 C875.29,513.44 875.38,513.20 875.51,512.86" fill="none" stroke="rgb(0, 0, 0)" stroke-width="2.00" stroke-opacity="1.00" stroke-linejoin="round"/>
<path d="M875.98,511.19 Q961.97,501.93 969.42,505.15" fill="none" stroke="rgb(0, 0, 0)" stroke-width="2.00" stroke-opacity="1.00" stroke-linejoin="round"/>
<path d="M967.33,503.82 Q976.79,502.07 977.46,502.74" fill="none" stroke="rgb(0, 0, 0)" stroke-width="2.00" stroke-opacity="1.00" stroke-linejoin="round"/>
<path d="M874.49,537.59 Q875.78,541.72 878.10,545.08" fill="none" stroke="rgb(0, 0, 0)" stroke-width="2.00" stroke-opacity="1.00" stroke-linejoin="round"/>
<path d="M896.45,553.09 Q959.26,565.76 980.71,514.07" fill="none" stroke="rgb(0, 0, 0)" stroke-width="2.00" stroke-opacity="1.00" stroke-linejoin="round"/>
<path d="M986.43,524.05 C986.43,524.05 986.55,524.05 986.55,524.05 C987.65,525.32 986.18,535.73 984.40,541.50 C984.07,542.57 983.09,545.15 982.41,546.79 C981.51,548.94 980.88,549.82 980.68,550.04" fill="none" stroke="rgb(0, 0, 0)" stroke-width="2.00" stroke-opacity="1.00" stroke-linejoin="round"/>
<path d="M933.74,507.65 C933.67,507.65 933.61,507.66 933.55,507.69 C932.88,508.06 931.29,510.42 930.86,511.91 C930.46,513.39 930.98,515.97 931.85,517.17 C932.69,518.29 935.21,519.99 936.64,520.33 C938.05,520.64 940.84,520.39 941.87,519.67 C943.07,518.80 944.81,515.63 945.10,513.86 C945.32,512.39 944.88,509.25 944.36,508.18 C943.76,507.02 941.57,505.73 940.29,505.74 C939.53,505.76 938.06,505.94 937.84,506.01 C937.81,506.02 937.77,506.03 937.71,506.04" fill="none" stroke="rgb(0, 0, 0)" stroke-width="2.00" stroke-opacity="1.00" stroke-linejoin="round"/>
<path d="M919.01,507.00 C919.02,506.97 919.00,507.06 918.99,507.09 C918.07,510.78 917.71,515.63 917.96,517.36 C918.28,519.35 919.51,522.70 920.60,524.39 C923.00,528.03 926.31,530.68 926.91,531.14" fill="none" stroke="rgb(0, 0, 0)" stroke-width="2.00" stroke-opacity="1.00" stroke-linejoin="round"/>
<path d="M925.65,529.76 C925.78,529.77 925.89,529.79 925.98,529.81 C928.20,530.50 932.33,531.33 935.65,531.59 C938.87,531.82 941.98,531.41 944.61,530.39 C947.23,529.33 950.61,527.14 952.28,525.56 C953.66,524.22 956.14,519.81 956.81,517.81 C957.61,515.31 957.89,507.11 957.76,506.05 C957.68,505.48 957.46,504.77 957.31,504.55 C957.18,504.38 957.03,504.30 956.90,504.29" fill="none" stroke="rgb(0, 0, 0)" stroke-width="2.00" stroke-opacity="1.00" stroke-linejoin="round"/>
<path d="M717.12,584.74 C717.19,584.78 718.60,589.41 719.58,590.64 C720.17,591.36 721.59,592.70 722.50,593.40 C723.40,594.09 726.40,595.92 727.82,596.67 C728.19,596.86 728.50,596.99 728.74,597.04" fill="none" stroke="rgb(0, 0, 0)" stroke-width="2.00" stroke-opacity="1.00" stroke-linejoin="round"/>
<path d="M727.28,596.29 C727.30,596.28 727.34,596.28 727.40,596.28 C727.89,596.28 732.89,596.59 734.38,596.38 C736.39,596.06 740.87,594.48 744.07,592.64 C745.72,591.67 748.06,588.86 748.55,587.47 C748.70,587.02 748.90,586.07 748.92,585.90 C748.92,585.86 748.92,585.82 748.93,585.75" fill="none" stroke="rgb(0, 0, 0)" stroke-width="2.00" stroke-opacity="1.00" stroke-linejoin="round"/>
<path d="M912.29,508.13 C912.29,508.13 912.29,508.05 912.29,508.05 C911.66,510.11 911.40,516.07 912.01,518.00 C912.73,520.10 915.96,527.12 916.26,527.64 C917.81,530.34 922.97,534.54 925.80,535.66 C929.34,537.02 936.13,538.06 938.96,537.96 C943.51,537.71 950.70,533.66 951.09,533.38" fill="none" stroke="rgb(0, 0, 0)" stroke-width="2.00" stroke-opacity="1.00" stroke-linejoin="round"/>
<path d="M949.84,533.92 C950.07,533.78 950.24,533.66 950.36,533.57 C950.73,533.25 955.91,528.38 957.70,526.03 C958.57,524.88 960.46,520.64 960.83,519.26 C962.23,513.91 961.61,506.00 961.16,505.13 C961.08,504.99 960.93,504.85 960.69,504.70 C960.69,504.70 960.50,504.82 960.50,504.82 C960.50,504.82 960.46,504.94 960.46,504.94" fill="none" stroke="rgb(0, 0, 0)" stroke-width="2.00" stroke-opacity="1.00" stroke-linejoin="round"/>
<path d="M864.24,572.03 C864.24,572.03 864.26,571.93 864.26,571.93 C868.08,573.71 871.92,576.32 873.93,577.71 C875.71,578.96 878.09,582.79 879.87,585.48 C880.45,586.34 885.60,594.68 887.24,596.01 C887.90,596.53 896.53,600.98 898.09,601.71 C899.56,602.40 906.04,605.26 907.05,605.54" fill="none" stroke="rgb(0, 0, 0)" stroke-width="2.00" stroke-opacity="1.00" stroke-linejoin="round"/>
<path d="M1519.75,628.58 Q1545.58,698.41 1501.09,801.24" fill="none" stroke="rgb(0, 0, 0)" stroke-width="2.00" stroke-opacity="1.00" stroke-linejoin="round"/>
<path d="M1501.04,794.26 C1500.79,794.55 1500.61,794.80 1500.49,795.01 C1496.95,800.93 1489.17,824.09 1488.25,825.14 C1488.40,822.55 1500.73,789.48 1506.09,774.24 C1507.30,770.76 1508.76,767.00 1509.34,765.59 C1509.14,768.83 1504.57,783.99 1502.32,791.22 C1496.84,807.59 1494.48,817.26 1493.80,820.27 C1493.79,820.01 1502.70,802.95 1504.02,799.09 C1506.32,791.97 1509.15,782.70 1509.53,781.43 C1509.00,784.65 1502.24,808.30 1502.08,808.65 C1501.94,808.97 1501.57,809.58 1500.98,810.49 C1502.22,801.76 1512.64,773.20 1516.04,764.32 C1514.11,768.31 1507.39,785.52 1505.58,791.42 C1503.87,797.07 1500.51,812.08 1499.44,817.04 C1499.44,817.04 1503.75,808.65 1503.75,808.65" fill="none" stroke="rgb(255, 255, 255)" stroke-width="6.00" stroke-opacity="1.00" stroke-linejoin="round"/>
<path d="M1405.88,1021.57 Q1466.42,898.61 1516.98,760.05" fill="none" stroke="rgb(0, 0, 0)" stroke-width="2.00" stroke-opacity="1.00" stroke-linejoin="round"/>
<path d="M1343.12,1138.50 Q1366.33,1099.37 1405.01,1022.93" fill="none" stroke="rgb(0, 0, 0)" stroke-width="2.00" stroke-opacity="1.00" stroke-linejoin="round"/>
<path d="M1539.62,633.49 Q1597.37,687.07 1634.59,715.63" fill="none" stroke="rgb(0, 0, 0)" stroke-width="2.00" stroke-opacity="1.00" stroke-linejoin="round"/>
<path d="M1635.56,716.59 Q1681.44,749.64 1682.08,787.82" fill="none" stroke="rgb(0, 0, 0)" stroke-width="2.00" stroke-opacity="1.00" stroke-linejoin="round"/>
<path d="M1643.00,1027.00 Q1681.00,875.00 1682.50,787.00" fill="none" stroke="rgb(0, 0, 0)" stroke-width="2.00" stroke-opacity="1.00" stroke-linejoin="round"/>
<path d="M1599.51,1137.37 Q1615.66,1119.46 1642.67,1027.26" fill="none" stroke="rgb(0, 0, 0)" stroke-width="2.00" stroke-opacity="1.00" stroke-linejoin="round"/>
<path d="M1677.45,760.55 Q1740.93,823.46 1754.97,840.88" fill="none" stroke="rgb(0, 0, 0)" stroke-width="2.00" stroke-opacity="1.00" stroke-linejoin="round"/>
<path d="M1659.48,734.71 Q1875.75,815.60 1949.34,840.31" fill="none" stroke="rgb(0, 0, 0)" stroke-width="2.00" stroke-opacity="1.00" stroke-linejoin="round"/>
<path d="M1875.61,839.12 Q1935.28,865.80 1947.51,873.22" fill="none" stroke="rgb(0, 0, 0)" stroke-width="2.00" stroke-opacity="1.00" stroke-linejoin="round"/>
</g>
</svg>
